<svg width="200" height="200" viewBox="0 0 200 200" fill="none" xmlns="http://www.w3.org/2000/svg">
<g clip-path="url(#clip0_1546_3405)">
<path fill-rule="evenodd" clip-rule="evenodd" d="M79.2933 174.904C76.8981 175.154 74.4922 175.28 72.0849 175.28C52.9668 175.28 34.6317 167.373 21.1132 153.3C7.59463 139.227 0 120.14 0 100.238C0 80.3351 7.59463 61.2478 21.1132 47.1747C34.6317 33.1015 52.9668 25.1953 72.0849 25.1953C74.4922 25.1953 76.8981 25.3209 79.2933 25.5715V48.0841C76.9022 47.7798 74.4932 47.6541 72.0849 47.708C58.7022 47.708 45.8676 53.2423 36.4047 63.0935C26.9417 72.9447 21.6255 86.3058 21.6255 100.238C21.6255 114.169 26.9417 127.53 36.4047 137.381C45.8676 147.233 58.7022 152.767 72.0849 152.767C74.4932 152.821 76.9022 152.695 79.2933 152.391V174.904Z" fill="#1E1E1E"/>
<path fill-rule="evenodd" clip-rule="evenodd" d="M199.996 173.708C197.601 173.959 195.195 174.084 192.788 174.084C173.67 174.084 155.335 166.178 141.816 152.105C128.298 138.032 120.703 118.945 120.703 99.0422C120.703 79.1398 128.298 60.0525 141.816 45.9793C155.335 31.9062 173.67 24 192.788 24C195.195 24 197.601 24.1255 199.996 24.3762V46.8888C197.605 46.5845 195.196 46.4588 192.788 46.5127C181.283 46.5117 170.123 50.6036 161.158 58.1102C152.193 65.6167 145.962 76.0871 143.497 87.7859H185.579V110.299H143.497C145.962 121.997 152.193 132.468 161.158 139.974C170.123 147.481 181.283 151.573 192.788 151.572C195.196 151.626 197.605 151.5 199.996 151.196V173.708Z" fill="#1E1E1E"/>
</g>
<defs>
<clipPath id="clip0_1546_3405">
<rect width="200" height="200" fill="white"/>
</clipPath>
</defs>
</svg>
