<svg width="200" height="200" viewBox="0 0 200 200" fill="none" xmlns="http://www.w3.org/2000/svg">
<g clip-path="url(#clip0_1546_3400)">
<path fill-rule="evenodd" clip-rule="evenodd" d="M133.11 13.0391C153.355 30.2461 167.018 62.7392 167.018 100.003C167.018 155.231 137.015 199.999 100.013 199.999C63.0122 199.999 33 155.222 33 99.994C33 92.121 33.6132 84.4734 34.7585 77.1235L74.0954 111.754L133.11 13.0391Z" fill="#ED1C24"/>
<path fill-rule="evenodd" clip-rule="evenodd" d="M100.002 0C111.383 0 122.088 4.23863 131.476 11.7058C132.026 12.1387 132.567 12.5806 133.099 13.0405L74.1025 111.764L34.7656 77.134C34.9189 76.178 35.0722 75.2311 35.2436 74.2932C42.8458 31.5191 68.9532 0 100.002 0Z" fill="#00A651"/>
<path fill-rule="evenodd" clip-rule="evenodd" d="M129.987 10.5391C131.863 11.9369 133.684 13.47 135.443 15.1114L75.3642 135.921L33.9531 83.1368C34.3229 79.8992 34.7918 76.7157 35.369 73.5864L68.5375 98.4409L129.987 10.5391Z" fill="white"/>
<path d="M76.6208 162.315V168.743H80.538C80.8728 168.743 81.1071 168.584 81.2411 168.266C81.3917 167.931 81.5089 167.53 81.5926 167.061C81.6428 166.843 81.7935 166.735 82.0446 166.735C82.0948 166.735 82.1618 166.743 82.2455 166.76C82.3292 166.776 82.3961 166.793 82.4463 166.81C82.4129 167.178 82.3794 167.597 82.3459 168.065C82.3292 168.534 82.3208 168.944 82.3208 169.296C82.3208 169.58 82.3292 169.932 82.3459 170.35C82.3626 170.752 82.3961 171.213 82.4463 171.731C82.3124 171.765 82.1869 171.782 82.0697 171.782C81.8018 171.782 81.6428 171.673 81.5926 171.455C81.5089 170.987 81.3917 170.593 81.2411 170.275C81.1071 169.94 80.8728 169.773 80.538 169.773H76.6208V175.699C76.6208 176.05 76.8468 176.285 77.2988 176.402C77.7508 176.519 78.4957 176.578 79.5336 176.578H80.9146C81.4001 176.578 81.8186 176.511 82.1701 176.377C82.5384 176.226 82.8565 176.034 83.1243 175.799C83.4089 175.548 83.66 175.255 83.8776 174.92C84.0952 174.586 84.3045 174.217 84.5054 173.816C84.5556 173.698 84.6811 173.64 84.882 173.64C84.9657 173.64 85.0494 173.665 85.1331 173.715C85.2335 173.765 85.3256 173.816 85.4093 173.866C85.2587 174.184 85.1247 174.569 85.0076 175.021C84.9071 175.456 84.8067 175.875 84.7062 176.276C84.6058 176.678 84.497 177.021 84.3798 177.306C84.2794 177.59 84.1454 177.733 83.978 177.733C83.8441 177.733 83.6516 177.724 83.4005 177.708C83.1494 177.691 82.8732 177.674 82.5719 177.657C82.2873 177.657 81.9944 177.649 81.693 177.632C81.3917 177.616 81.1322 177.607 80.9146 177.607H75.4155C74.9301 177.607 74.4111 177.616 73.8587 177.632C73.3063 177.666 72.779 177.699 72.2768 177.733C72.2433 177.565 72.2266 177.431 72.2266 177.331C72.2266 177.097 72.3103 176.963 72.4777 176.929C73.1138 176.812 73.5658 176.686 73.8336 176.553C74.1182 176.419 74.2605 176.184 74.2605 175.849V163.069C74.2605 162.734 74.1349 162.508 73.8838 162.391C73.6495 162.257 73.1807 162.123 72.4777 161.989C72.3103 161.955 72.2266 161.813 72.2266 161.562C72.2266 161.478 72.2266 161.411 72.2266 161.361C72.2433 161.294 72.26 161.227 72.2768 161.16C72.9966 161.21 73.5992 161.244 74.0847 161.261C74.5702 161.277 75.0054 161.286 75.3904 161.286H80.3371C81.0904 161.286 81.7433 161.261 82.2957 161.21C82.8481 161.16 83.2164 161.135 83.4005 161.135C83.6181 161.135 83.7604 161.277 83.8274 161.562C83.9111 161.83 83.978 162.156 84.0283 162.541C84.0785 162.926 84.1371 163.336 84.204 163.772C84.271 164.207 84.3965 164.575 84.5807 164.876C84.4468 164.977 84.2961 165.027 84.1287 165.027C83.9111 165.027 83.7688 164.952 83.7018 164.801C83.501 164.366 83.3084 163.998 83.1243 163.696C82.9402 163.378 82.7225 163.119 82.4714 162.918C82.2371 162.717 81.9441 162.566 81.5926 162.466C81.2578 162.365 80.8393 162.315 80.3371 162.315H76.6208Z" fill="white"/>
<path d="M95.3011 177.909C93.8949 177.909 92.6645 177.691 91.6099 177.256C90.5553 176.82 89.6764 176.226 88.9734 175.473C88.287 174.703 87.7681 173.807 87.4165 172.786C87.0817 171.748 86.9143 170.635 86.9143 169.446C86.9143 168.459 87.0817 167.463 87.4165 166.458C87.7681 165.454 88.287 164.55 88.9734 163.746C89.6764 162.926 90.5553 162.265 91.6099 161.763C92.6645 161.244 93.8949 160.984 95.3011 160.984C95.8535 160.984 96.3557 161.001 96.8077 161.035C97.2764 161.051 97.72 161.093 98.1385 161.16C98.557 161.21 98.9671 161.286 99.3689 161.386C99.7707 161.47 100.189 161.57 100.624 161.687C100.641 162.139 100.7 162.692 100.8 163.345C100.901 163.998 101.035 164.659 101.202 165.328C101.068 165.395 100.934 165.429 100.8 165.429C100.666 165.429 100.541 165.412 100.424 165.379C100.323 165.345 100.256 165.253 100.223 165.102C99.9213 163.998 99.4442 163.211 98.7914 162.742C98.1385 162.273 97.1927 162.039 95.9539 162.039C94.9161 162.039 93.9954 162.206 93.1918 162.541C92.4051 162.876 91.7355 163.345 91.183 163.947C90.6474 164.55 90.2372 165.278 89.9527 166.132C89.6848 166.969 89.5509 167.906 89.5509 168.944C89.5509 170.099 89.7267 171.162 90.0782 172.133C90.4297 173.104 90.8985 173.941 91.4844 174.644C92.087 175.347 92.7817 175.891 93.5685 176.276C94.372 176.661 95.2258 176.854 96.1297 176.854C96.8495 176.854 97.4522 176.787 97.9376 176.653C98.4398 176.502 98.85 176.293 99.168 176.025C99.5028 175.757 99.779 175.431 99.9967 175.046C100.231 174.644 100.449 174.192 100.65 173.69C100.767 173.439 100.968 173.313 101.252 173.313C101.336 173.313 101.42 173.33 101.503 173.364C101.604 173.38 101.679 173.405 101.729 173.439C101.528 174.025 101.327 174.669 101.127 175.372C100.926 176.075 100.758 176.779 100.624 177.482C99.8041 177.616 98.9671 177.716 98.1134 177.783C97.2597 177.867 96.3222 177.909 95.3011 177.909Z" fill="white"/>
<path d="M113.354 171.631H107.754L106.147 175.674C106.064 175.875 106.022 176.042 106.022 176.176C106.022 176.527 106.532 176.779 107.553 176.929C107.671 176.946 107.746 176.996 107.779 177.08C107.83 177.147 107.855 177.231 107.855 177.331C107.855 177.431 107.838 177.565 107.804 177.733C107.353 177.699 106.875 177.666 106.373 177.632C105.871 177.616 105.377 177.607 104.892 177.607C104.557 177.607 104.214 177.616 103.862 177.632C103.511 177.649 103.142 177.683 102.757 177.733C102.724 177.599 102.707 177.465 102.707 177.331C102.707 177.214 102.724 177.113 102.757 177.03C102.808 176.946 102.9 176.896 103.034 176.879C103.553 176.795 103.938 176.695 104.189 176.578C104.456 176.444 104.649 176.243 104.766 175.975L110.818 161.411C110.935 161.127 111.094 160.984 111.295 160.984C111.362 160.984 111.462 161.001 111.596 161.035L117.673 176.05C117.773 176.285 117.999 176.469 118.351 176.603C118.702 176.737 119.045 176.829 119.38 176.879C119.481 176.912 119.556 176.963 119.606 177.03C119.673 177.08 119.707 177.18 119.707 177.331C119.707 177.431 119.69 177.565 119.656 177.733C119.121 177.699 118.593 177.666 118.074 177.632C117.556 177.616 117.07 177.607 116.618 177.607C116.149 177.607 115.614 177.616 115.011 177.632C114.408 177.666 113.864 177.699 113.379 177.733C113.345 177.565 113.329 177.431 113.329 177.331C113.329 177.18 113.354 177.08 113.404 177.03C113.471 176.963 113.53 176.929 113.58 176.929C114.015 176.846 114.367 176.753 114.634 176.653C114.902 176.536 115.036 176.368 115.036 176.151C115.036 176.05 115.003 175.925 114.936 175.774L113.354 171.631ZM112.952 170.602L110.617 164.45L108.181 170.602H112.952Z" fill="white"/>
<path d="M130.937 165.228C130.77 165.261 130.644 165.278 130.56 165.278C130.343 165.278 130.184 165.236 130.083 165.153C129.983 165.069 129.908 164.977 129.857 164.876C129.422 163.922 128.903 163.228 128.301 162.792C127.698 162.357 126.878 162.139 125.84 162.139C125.438 162.139 125.053 162.198 124.685 162.315C124.333 162.416 124.023 162.575 123.756 162.792C123.488 162.993 123.27 163.244 123.103 163.546C122.952 163.847 122.877 164.182 122.877 164.55C122.877 165.337 123.203 165.981 123.856 166.483C124.526 166.986 125.505 167.496 126.794 168.015C128.401 168.651 129.581 169.363 130.334 170.15C131.104 170.92 131.489 171.874 131.489 173.012C131.489 173.698 131.381 174.343 131.163 174.946C130.962 175.531 130.636 176.05 130.184 176.502C129.749 176.938 129.179 177.281 128.476 177.532C127.773 177.783 126.928 177.909 125.94 177.909C124.902 177.909 123.956 177.8 123.103 177.582C122.266 177.364 121.554 177.08 120.968 176.728C120.918 176.025 120.843 175.347 120.742 174.694C120.642 174.042 120.525 173.389 120.391 172.736C120.508 172.686 120.65 172.661 120.818 172.661C121.019 172.661 121.169 172.711 121.27 172.811C121.387 172.895 121.487 173.037 121.571 173.238C121.99 174.443 122.525 175.331 123.178 175.9C123.848 176.469 124.777 176.753 125.965 176.753C126.501 176.753 126.97 176.678 127.371 176.527C127.773 176.377 128.108 176.168 128.376 175.9C128.644 175.632 128.845 175.331 128.978 174.996C129.112 174.661 129.179 174.301 129.179 173.916C129.179 173.046 128.878 172.359 128.275 171.857C127.69 171.355 126.844 170.903 125.739 170.501C125.019 170.233 124.367 169.957 123.781 169.672C123.195 169.371 122.693 169.028 122.274 168.643C121.856 168.258 121.529 167.814 121.295 167.312C121.077 166.793 120.968 166.182 120.968 165.479C120.968 164.86 121.077 164.282 121.295 163.746C121.529 163.194 121.856 162.717 122.274 162.315C122.709 161.913 123.228 161.595 123.831 161.361C124.434 161.127 125.112 161.009 125.865 161.009C126.652 161.009 127.405 161.085 128.125 161.235C128.845 161.386 129.656 161.637 130.56 161.989C130.594 162.491 130.636 163.035 130.686 163.621C130.753 164.19 130.837 164.726 130.937 165.228Z" fill="white"/>
</g>
<defs>
<clipPath id="clip0_1546_3400">
<rect width="200" height="200" fill="white"/>
</clipPath>
</defs>
</svg>
