<svg width="200" height="200" viewBox="0 0 200 200" fill="none" xmlns="http://www.w3.org/2000/svg">
<g clip-path="url(#clip0_1546_3410)">
<g clip-path="url(#clip1_1546_3410)">
<path d="M178.039 104.984C176.519 100.998 173.399 97.4375 169.603 94.8766C158.645 87.9169 141.943 87.4191 130.654 93.7096C124.495 96.8523 120.451 103.068 119.19 109.461C116.906 119.974 117.493 132.48 125.59 140.359C135.037 148.639 148.78 150.466 161.001 147.067C161.58 146.955 163.423 146.495 164.693 145.818L165.052 145.664C168.847 144.087 172.466 141.517 175.167 138.037C181.407 128.922 181.833 115.252 178.037 104.982L178.039 104.984ZM158.138 128.592C157.714 130.583 156.369 132.651 154.255 133.399C150.885 134.88 146.334 134.472 143.215 132.739C140.601 130.91 140.264 127.851 139.927 124.951C139.67 119.239 139.26 113.191 140.86 107.964C142.114 104.727 145.573 103.898 148.698 103.655C151.986 103.655 155.181 104.154 157.212 106.804C158.475 108.705 158.395 111.194 158.645 113.432C158.556 118.152 158.982 123.782 158.138 128.59V128.592Z" fill="#0054A5"/>
<path d="M58.2159 133.737C55.4349 133.567 52.3132 133.81 49.6212 133.48L49.7016 104.396L49.871 104.153L58.2177 104.073C58.3068 99.3526 58.3871 94.2884 58.1303 89.9858L26.3526 89.8984L21.1189 89.9858C21.0386 94.3757 21.0386 99.5063 21.1189 103.984C23.9891 104.071 26.6828 103.984 29.4656 104.24V132.407L29.3852 133.567L21.0386 133.737C20.8621 138.368 20.8621 142.847 21.0386 147.404H58.2194V133.737H58.2159Z" fill="#0054A5"/>
<path d="M151.817 153.616C148.279 158.673 143.809 163.563 138.927 167.364C138.75 167.621 138.244 167.525 138.083 167.284C135.967 165.961 133.693 164.883 131.667 163.561C134.367 160.333 136.982 157.101 139.007 153.527H136.388C134.289 156.603 132.095 159.833 129.312 162.563C125.598 161.075 122.23 159.746 118.434 158.746L118.015 158.43C118.602 156.757 119.695 155.186 120.032 153.527H117.756L115.482 158.004C110.512 156.926 105.028 156.346 99.9692 156.016C99.7124 155.275 100.05 154.196 99.7124 153.527H97.5235C97.3471 154.526 97.7733 155.275 97.2667 156.105C92.04 156.346 86.9828 156.926 82.0932 157.932L79.81 153.527C78.9733 153.527 78.0404 153.366 77.4535 153.616L79.5602 158.504L79.3104 158.746C75.5074 159.833 71.8093 161.162 68.1827 162.646L67.8438 162.476C65.4803 159.906 63.2041 157.103 61.3471 154.283C60.9279 152.868 59.2404 153.696 58.3163 153.527C60.3339 157.176 63.0364 160.404 65.7301 163.723C63.4539 165.051 61.1847 166.534 58.8141 167.621C53.7569 163.804 49.0438 158.834 45.4976 153.616C44.4844 153.455 43.8171 153.527 42.7969 153.616C48.8673 163.063 58.3145 171.343 68.181 176.233C68.181 176.233 68.181 176.158 68.2683 176.158C68.3417 176.158 68.5094 176.311 68.3417 176.401C75.0061 179.631 82.0897 181.95 89.5926 182.948C115.478 186.34 140.184 175.328 154.514 153.616C153.766 153.527 152.657 153.527 151.813 153.616H151.817ZM116.664 161.075L116.914 160.906C120.548 161.734 123.998 162.895 127.205 164.466C124.504 167.526 121.045 170.183 117.847 172.416C115.91 173.576 113.964 174.83 111.937 175.814L108.319 174.243L108.569 173.672C111.609 169.614 114.309 165.463 116.666 161.075H116.664ZM100.051 158.586C104.86 158.675 109.668 159.173 114.131 160.245L114.219 160.495C111.862 164.965 108.905 169.282 105.704 173.335C104.267 173.502 102.923 172.929 101.491 172.844L100.051 172.673C99.8836 167.785 99.7945 163.477 100.051 158.586ZM83.7842 160.076C88.1672 159.248 92.7178 158.586 97.4379 158.586L97.5253 172.601C95.7487 173.005 93.8114 173.005 92.1221 173.429C88.665 169.355 85.8019 164.965 83.358 160.406L83.7842 160.076ZM70.2039 164.555C73.5003 162.976 76.9504 161.809 80.4878 160.906L80.832 160.993C83.2689 165.552 86.3085 169.855 89.3411 174.163C88.1654 174.83 86.7277 175.234 85.5538 175.903C79.99 173.171 74.6742 169.355 70.2039 164.798V164.555ZM81.0835 178.722C73.9999 176.893 67.4211 173.745 61.3524 169.443V169.186C63.3788 167.953 65.4034 166.625 67.5923 165.706C72.3997 170.442 77.3696 174 82.7728 177.393C82.3465 177.892 81.6722 178.394 81.0853 178.722H81.0835ZM112.363 179.793C103.43 181.709 93.4742 181.784 84.5406 179.632C84.3729 179.22 84.9599 179.134 85.2167 178.892C93.0567 173.834 105.28 173.834 112.959 179.295C113.209 179.793 112.533 179.634 112.365 179.793H112.363ZM120.458 177.48L116.495 178.722C115.819 178.392 115.232 177.892 114.638 177.393L114.807 177.143C120.203 174 125.091 170.185 129.731 165.626C132.007 166.536 134.201 167.783 136.228 169.186C131.508 172.931 126.024 175.405 120.458 177.48Z" fill="#0054A5"/>
<path d="M45.3274 83.6057C47.3538 80.7862 49.63 78.0558 52.1543 75.4058C54.3414 73.3357 56.3678 71.346 58.7313 69.8489C60.9254 71.2587 63.3711 72.4326 65.4761 73.7532C62.8628 76.9675 60.169 80.2133 58.223 83.6861C58.81 83.9429 59.9122 83.8625 60.756 83.6861C62.8627 80.6255 65.139 77.5562 67.8396 74.8258C71.4592 76.1552 75.0037 77.5562 78.7175 78.5555L79.0477 78.8856L76.941 83.6878C77.8738 83.8643 78.4608 83.7752 79.3849 83.6878C80.1413 82.2851 80.7282 80.7146 81.572 79.2979C86.4685 80.3844 91.6149 80.9574 96.8416 81.1181C97.5159 81.7051 97.0093 82.9454 97.2608 83.6878H99.5353C99.7851 82.872 99.4549 81.9479 99.7851 81.2142C104.682 80.9574 109.819 80.4578 114.555 79.2979L114.967 79.3852L117.244 83.6878C118.007 83.6878 119.013 83.8643 119.607 83.5184L117.493 78.7249L117.67 78.5555C121.539 77.558 125.173 76.0679 128.88 74.5848C131.5 77.3152 133.937 80.5452 136.14 83.6878C137.064 83.6878 137.99 83.7752 138.666 83.5184C137.651 81.7051 136.382 79.8848 135.039 78.2987C133.939 76.7282 132.763 75.3254 131.323 73.8371V73.4109L137.226 70.0201L138.079 69.69C143.216 73.5803 147.767 78.3004 151.394 83.5201C152.407 83.5201 153.25 83.8643 154.094 83.4467C142.79 66.5491 124.159 55.6834 104.018 54.1199L103.929 54.2806L103.759 54.1199C101.485 53.8771 98.6933 53.781 96.2494 54.0238C95.3252 53.9505 94.2299 54.0238 93.1294 54.1199C72.8986 55.6834 54.268 66.0477 42.625 83.6878C43.4687 83.6075 44.4819 83.9446 45.3257 83.6075L45.3274 83.6057ZM80.3212 76.3229L79.984 76.3963C76.5269 75.4932 73.1502 74.4066 69.9499 73.0038L70.1106 72.5042C74.7504 68.116 79.6382 64.4668 85.0343 61.6543C86.3043 62.1539 87.5673 62.5644 88.8286 63.1514L88.5788 63.7977C85.3697 67.7841 82.8455 72.085 80.3212 76.3212V76.3229ZM97.0949 78.5537C94.7383 78.8839 92.6315 78.4803 90.261 78.2969C87.9918 77.9668 85.1217 77.7257 82.8472 76.9693C85.2911 72.4326 88.1612 68.0357 91.6201 63.9846L97.0145 64.7183C97.2643 69.0192 97.0949 73.9961 97.0949 78.5555V78.5537ZM99.7082 78.6428C99.5388 74.2389 99.6279 69.3563 99.7082 64.7969C101.396 64.5559 103.246 64.2991 104.935 64.0562C108.224 68.1894 111.432 72.4308 113.626 76.9675C109.068 78.0541 104.428 78.6411 99.7082 78.6411V78.6428ZM126.61 72.8361C123.316 74.2389 119.939 75.5665 116.319 76.3229C113.708 71.933 110.843 67.543 107.629 63.2998C108.81 62.6535 110.249 62.1556 111.512 61.4936C117.002 64.2257 122.31 68.116 126.773 72.5776L126.61 72.8344V72.8361ZM115.813 58.6688C122.896 60.4961 129.554 63.6387 135.626 67.9466L135.457 68.2767L129.643 71.5067H129.218C124.755 67.0434 119.528 63.1531 114.213 60.0786C114.382 59.4986 115.226 59.0793 115.813 58.6688ZM112.445 57.8391V58.0085C105.104 63.3016 93.2202 63.7995 85.4675 58.9116C85.0343 58.5815 84.1975 58.419 84.1102 57.8391C93.0508 55.776 103.585 55.6083 112.445 57.8391ZM61.0075 68.116C66.3216 64.2257 72.2243 61.3259 78.4642 59.3361C78.721 59.0793 78.8835 58.8383 79.2207 58.8383V59.006C79.8967 59.1667 80.4033 58.419 80.9903 58.9116C81.4969 59.3361 82.0908 59.6663 82.51 60.0786C77.2833 63.2998 72.1387 67.1185 67.4169 71.7496C65.1424 70.9338 63.0339 69.6865 61.0093 68.2767V68.116H61.0075Z" fill="#0054A5"/>
<path d="M97.1871 134.388C89.2597 136.548 80.6562 134.902 74.9229 128.928C74.2539 128.098 73.8294 127.114 73.1533 126.285L61.7758 126.367C61.5994 133.073 61.519 140.782 61.7758 147.411L74.4163 147.331L74.5858 143.353C76.0252 144.012 77.4559 144.842 78.8884 145.582C87.6595 149.232 98.9497 150.061 107.635 145.582C113.962 142.111 117.339 135.403 116.406 128.178C115.482 121.145 108.736 114.76 101.909 113.027L81.5017 107.14L79.9889 106.391C79.3129 105.818 78.8884 105.077 79.0561 104.158C80.6562 101.428 84.3719 102.258 87.1529 102.331C93.0557 103.161 99.1261 105.151 102.583 110.538C106.29 110.538 110.591 110.611 114.637 110.451C114.806 103.661 114.563 97.7001 114.467 90.8208C110.673 90.7335 106.033 90.7335 102.246 90.9082C102.077 91.8917 102.409 93.2944 101.989 94.2919L98.1129 92.2219C88.8352 88.3315 75.8488 87.921 67.4218 93.9687C61.9383 97.9394 60.2578 105.075 61.6885 111.366C62.782 117.326 68.5153 121.716 73.9988 123.786C81.5017 126.436 89.3418 128.353 96.939 130.914C97.6937 131.251 98.6999 132.002 98.5392 132.912C98.5392 133.646 97.7758 134.074 97.1888 134.387L97.1871 134.388Z" fill="#0054A5"/>
<path d="M17.4769 153.471L17.8875 154.416C17.9608 154.594 17.8647 154.798 17.6743 154.88L5.52644 160.128C5.35001 160.201 5.14562 160.151 5.06352 159.959L4.653 159.012C4.57963 158.834 4.653 158.636 4.84341 158.556L17 153.308C17.1677 153.233 17.3966 153.277 17.4769 153.469V153.471Z" fill="#0054A5"/>
<path d="M13.8771 143.658L14.1636 144.509C14.23 144.706 14.1269 144.923 13.9295 144.987L8.05646 146.97C6.25891 147.58 5.91303 148.371 6.36722 149.732C6.61702 150.479 7.19001 151.22 7.87304 151.903L15.4056 149.363C15.5821 149.299 15.8162 149.4 15.8825 149.599L16.176 150.472C16.2337 150.647 16.1323 150.862 15.9332 150.927L6.83888 154.003C6.64148 154.068 6.43535 153.978 6.36897 153.781L6.0685 152.894C6.00212 152.696 6.11217 152.497 6.31132 152.432L6.64847 152.314C5.76105 151.521 5.22475 150.811 4.87188 149.76C4.14517 147.616 5.15837 146.208 7.5289 145.401L13.402 143.425C13.5924 143.361 13.8125 143.464 13.8789 143.661L13.8771 143.658Z" fill="#0054A5"/>
<path d="M12.2064 136.636C12.3461 136.987 12.4998 137.459 12.5802 137.805C12.9767 139.492 12.7339 140.395 10.7232 140.877L4.3366 142.397L4.55671 144.217C4.58641 144.424 4.51304 144.6 4.3069 144.644L3.81603 144.761C3.61863 144.811 3.45617 144.694 3.40376 144.497L2.97926 142.72L1.1887 143.145C1.00528 143.189 0.828839 143.094 0.748482 142.902L0.3729 141.985C0.365913 141.969 0.365913 141.947 0.358925 141.934C0.32224 141.788 0.425307 141.625 0.608731 141.583L2.59844 141.112L2.12853 139.131C2.08486 138.933 2.20888 138.725 2.40803 138.682L3.03167 138.535C3.22907 138.484 3.4352 138.608 3.48761 138.813L3.95752 140.788L10.3372 139.262C11.3434 139.027 11.4307 138.734 11.2543 138L11.0115 136.978C10.9521 136.722 10.9975 136.575 11.1809 136.531L11.8203 136.377C11.981 136.339 12.1138 136.405 12.2098 136.634L12.2064 136.636Z" fill="#0054A5"/>
<path d="M6.191 128.176L7.05047 134.417L7.316 134.379C9.53281 134.072 10.2298 133.088 9.99574 131.371C9.849 130.291 9.57823 128.918 9.33541 128.082C9.32842 128.043 9.32143 128.022 9.32143 127.985C9.29873 127.839 9.35113 127.676 9.54154 127.654L10.1722 127.564C10.415 127.528 10.553 127.587 10.6491 127.874C11.0019 128.908 11.2587 129.921 11.4352 131.168C11.7287 133.312 11.0107 135.535 7.54485 136.021L5.86433 136.248C3.20032 136.624 1.30669 135.382 0.93111 132.718C0.557275 129.996 2.07707 128.38 4.72536 128.012L5.73157 127.874C5.97439 127.844 6.15781 127.947 6.1945 128.174L6.191 128.176ZM4.95071 129.673C2.84396 129.966 2.13996 130.877 2.36706 132.52C2.58716 134.122 3.62307 134.893 5.63374 134.613L5.80145 134.589L5.11841 129.65L4.94896 129.671L4.95071 129.673Z" fill="#0054A5"/>
<path d="M1.43278 121.683C1.47646 122.552 1.74024 123.322 2.3499 124.23L10.2109 123.82C10.3943 123.813 10.5917 123.974 10.6005 124.178L10.6511 125.097C10.6581 125.287 10.4974 125.464 10.2913 125.471L0.725293 125.97C0.520906 125.977 0.34447 125.837 0.337483 125.631L0.29381 124.751C0.279835 124.546 0.440549 124.384 0.646683 124.375L1.04323 124.354C0.339229 123.451 0.0457515 122.599 0.000332296 121.755C-0.00665527 121.489 0.0964114 121.358 0.323507 121.343L1.0869 121.306C1.29303 121.29 1.41706 121.416 1.43104 121.678L1.43278 121.683Z" fill="#0054A5"/>
<path d="M10.6707 111.894L10.634 112.797C10.627 113.003 10.4506 113.164 10.2444 113.157L4.07092 112.907C2.17728 112.834 1.56762 113.451 1.51696 114.874C1.48027 115.661 1.7458 116.555 2.14933 117.437L10.061 117.753C10.2444 117.76 10.4279 117.937 10.4209 118.143L10.3842 119.06C10.3772 119.25 10.2008 119.413 9.99463 119.397L0.430392 119.023C0.224259 119.016 0.0635444 118.856 0.070532 118.649L0.107217 117.71C0.114204 117.505 0.29064 117.365 0.496774 117.372L0.849646 117.386C0.31335 116.33 0.0635444 115.477 0.107217 114.37C0.194561 112.116 1.64099 111.162 4.1373 111.265L10.3038 111.508C10.5169 111.515 10.6794 111.692 10.6707 111.896V111.894Z" fill="#0054A5"/>
<path d="M11.8989 102.696L11.7661 103.556C11.7364 103.762 11.546 103.9 11.3399 103.872L10.9293 103.813C11.3189 104.782 11.5757 105.766 11.422 106.807C11.1879 108.386 10.2847 109.728 7.96487 109.39L7.73777 109.354C5.73234 109.06 4.90431 107.738 5.3882 104.427L5.59433 103.054L4.85365 102.944C3.29018 102.717 2.67353 103.171 2.46041 104.618C2.27698 105.829 2.22632 106.732 2.18964 107.488C2.18265 107.525 2.18265 107.539 2.17392 107.575C2.14422 107.743 2.06386 107.906 1.82978 107.869L1.17644 107.773C0.970309 107.743 0.882964 107.596 0.882964 107.333C0.860255 106.546 0.875977 105.673 1.06639 104.412C1.44721 101.835 2.90237 100.984 5.09647 101.308L11.5792 102.268C11.7836 102.298 11.9303 102.488 11.9024 102.695L11.8989 102.696ZM6.76825 103.233L6.56211 104.604C6.23195 106.85 6.64247 107.518 7.96312 107.717L8.18323 107.747C9.5196 107.946 9.96681 107.373 10.1293 106.293C10.2533 105.434 10.1066 104.634 9.75543 103.673L6.76825 103.233Z" fill="#0054A5"/>
<path d="M13.5539 95.7644C13.5242 96.1382 13.4439 96.6238 13.3635 96.975C12.96 98.6555 12.3293 99.3542 10.3169 98.8756L3.93028 97.3558L3.30664 99.0817C3.24026 99.2791 3.10225 99.3979 2.89612 99.3525L2.40349 99.2354C2.19736 99.183 2.11002 99.0084 2.15369 98.8092L2.57818 97.0326L0.787618 96.6064C0.604195 96.5627 0.487153 96.3933 0.501128 96.1889L0.574498 95.2054C0.581485 95.1827 0.588473 95.1687 0.588473 95.146C0.625157 94.9992 0.785872 94.9049 0.964055 94.9486L2.96075 95.4185L3.43067 93.4445C3.48133 93.2454 3.68746 93.1213 3.88661 93.165L4.51025 93.3187C4.70765 93.3624 4.83342 93.5685 4.788 93.7677L4.31809 95.7417L10.6977 97.2684C11.704 97.5025 11.9153 97.2824 12.0848 96.5505L12.3346 95.5285C12.394 95.2717 12.4953 95.1617 12.6787 95.2054L13.3181 95.3591C13.4875 95.3958 13.5749 95.5128 13.5539 95.7626V95.7644Z" fill="#0054A5"/>
<path d="M3.0069 89.1442L2.7274 90.0613C2.66102 90.2604 2.45663 90.3705 2.25748 90.3111L0.819791 89.8709C0.622392 89.8115 0.512338 89.6001 0.569985 89.401L0.847741 88.4839C0.914123 88.2865 1.11851 88.1764 1.31766 88.234L2.7571 88.6743C2.95449 88.7406 3.06455 88.945 3.0069 89.1442ZM14.4438 92.6974L14.18 93.5568C14.1206 93.7542 13.9075 93.8643 13.7101 93.8066L4.55639 91.0029C4.359 90.9365 4.24894 90.7321 4.30659 90.533L4.57212 89.6665C4.6385 89.4691 4.84288 89.359 5.04203 89.4167L14.1957 92.2274C14.3931 92.2868 14.5119 92.4982 14.4456 92.6974H14.4438Z" fill="#0054A5"/>
<path d="M16.7581 86.5845C15.7361 89.1472 13.528 89.7778 10.9671 88.7576L9.64645 88.2353C7.07677 87.2151 5.90985 85.2341 6.93003 82.6714C7.95022 80.1087 10.167 79.4554 12.728 80.4756L14.0556 81.0031C16.6183 82.0233 17.7782 84.02 16.7581 86.5827V86.5845ZM12.1183 82.0111C10.3417 81.2984 8.92499 81.5639 8.27165 83.2007C7.6253 84.8236 8.45507 85.9835 10.2544 86.7015L11.575 87.2238C13.3516 87.9366 14.7683 87.6868 15.4217 86.0482C16.061 84.4253 15.2383 83.2514 13.439 82.5387L12.1166 82.0094L12.1183 82.0111Z" fill="#0054A5"/>
<path d="M22.5149 74.4043L22.0886 75.1974C21.9925 75.3808 21.7585 75.4472 21.582 75.3511L16.1282 72.4303C14.4547 71.5272 13.6389 71.8207 12.9646 73.0767C12.5908 73.7737 12.437 74.6995 12.4056 75.6603L19.4019 79.4109C19.5626 79.4982 19.6517 79.7411 19.5556 79.9245L19.1154 80.7316C19.0281 80.8993 18.7992 80.9656 18.6158 80.8713L10.1678 76.3346C9.9844 76.2403 9.9023 76.0272 10.0071 75.8438L10.4473 75.014C10.5504 74.8375 10.7705 74.7781 10.9452 74.8812L11.2614 75.0507C11.2387 73.861 11.3941 72.9806 11.9147 72.0041C12.9786 70.0144 14.7045 69.7873 16.9073 70.9699L22.3611 73.8907C22.5446 73.9938 22.6109 74.2209 22.5149 74.4043Z" fill="#0054A5"/>
<path d="M27.5856 66.7726L27.0948 67.4853C26.9777 67.653 26.7436 67.6985 26.5742 67.5797L26.2353 67.3526C26.1619 68.3867 25.9575 69.386 25.3618 70.2524C24.4587 71.5748 23.0577 72.3889 21.1186 71.0595L20.9352 70.9354C19.2617 69.7912 19.0922 68.2417 20.9876 65.4799L21.7737 64.3357L21.1501 63.9094C19.8504 63.022 19.094 63.16 18.266 64.3724C17.5759 65.3786 17.1287 66.1629 16.7689 66.825C16.7462 66.8547 16.7392 66.8687 16.7165 66.8984C16.6221 67.0381 16.4754 67.1482 16.2763 67.0084L15.733 66.6416C15.5635 66.5245 15.5426 66.3481 15.6596 66.114C15.9898 65.4013 16.3863 64.6309 17.106 63.574C18.5804 61.4236 20.2557 61.2978 22.0829 62.5539L27.4931 66.2538C27.6608 66.3708 27.7062 66.6067 27.5874 66.7761L27.5856 66.7726ZM22.7415 65.003L21.9554 66.149C20.6767 68.0199 20.75 68.806 21.8523 69.5624L22.0358 69.6864C23.152 70.4498 23.8054 70.1266 24.422 69.2235C24.9146 68.5108 25.1348 67.7334 25.2361 66.7132L22.7415 65.003Z" fill="#0054A5"/>
<path d="M30.0865 63.6264L29.4698 64.3898C29.3528 64.5365 29.1327 64.5505 28.9702 64.4195L18.5028 56.0362C18.3561 55.9191 18.3054 55.713 18.4294 55.5523L19.0461 54.7889C19.1631 54.6421 19.3693 54.6212 19.53 54.7452L29.9974 63.1285C30.1441 63.2456 30.2105 63.4657 30.0847 63.6282L30.0865 63.6264Z" fill="#0054A5"/>
<path d="M38.2875 55.0254C36.1353 57.0361 33.3909 57.2422 30.5418 54.2026L28.8822 52.433C26.0278 49.3865 26.4086 46.6631 28.559 44.6454C30.7182 42.626 33.4468 42.4356 36.296 45.4822L37.9556 47.2518C40.803 50.2913 40.4362 53.006 38.2857 55.0254H38.2875ZM35.0348 46.6631C32.8774 44.3572 31.1217 44.3572 29.6177 45.7669C28.1206 47.1679 27.9878 48.9445 30.1452 51.2504L31.7978 53.02C33.9552 55.3172 35.7248 55.3102 37.2376 53.8934C38.7277 52.4994 38.8535 50.7298 36.6943 48.4327L35.0348 46.6631Z" fill="#0054A5"/>
<path d="M41.365 40.5495C40.675 41.0788 40.1894 41.7304 39.7858 42.7506L44.5653 48.9975C44.6824 49.1442 44.6597 49.401 44.4989 49.5268L43.7652 50.0858C43.6185 50.2028 43.3844 50.1661 43.2517 50.0054L37.438 42.4012C37.3052 42.2387 37.3279 42.0116 37.4887 41.8876L38.1857 41.3513C38.3551 41.2273 38.5735 41.264 38.6993 41.4317L38.9403 41.7391C39.2845 40.6526 39.8208 39.9328 40.4968 39.4193C40.7029 39.2585 40.8776 39.2655 41.0104 39.449L41.4803 40.0586C41.6061 40.2193 41.5694 40.3888 41.3633 40.5495H41.365Z" fill="#0054A5"/>
<path d="M49.8886 34.8843L49.3907 35.3542C49.8676 35.4782 50.4179 35.7874 50.9682 36.6451L51.0485 36.7691C52.156 38.5091 51.6931 40.1616 49.2579 41.7181C48.4212 42.2526 47.7975 42.4675 47.2176 42.5688C47.0342 42.8693 47.0184 43.1261 47.1652 43.3619C47.3416 43.6327 47.5547 43.6921 47.981 43.5523L50.7271 42.6562C52.5246 42.0622 54.3012 41.5556 55.248 43.0457L55.3284 43.1698C56.2979 44.6896 55.8787 46.267 53.281 47.9196C50.7847 49.5197 49.0239 49.2769 48.0404 47.7292L47.9443 47.5824C47.38 46.702 47.394 45.6661 47.6648 44.9394L47.518 44.9621C46.8717 45.0651 46.3214 44.6826 46.007 44.1917L46 44.1777C45.7222 43.7515 45.6401 43.1575 45.9196 42.6212C45.1335 42.4815 44.5326 42.064 44.019 41.2552L43.9387 41.1224C43.0425 39.7127 42.9482 37.819 45.6716 36.0791L49.1374 33.8693C49.3278 33.7523 49.5986 33.7959 49.7244 33.9863L49.9812 34.3969C50.1139 34.603 50.0475 34.734 49.8938 34.8825L49.8886 34.8843ZM49.5881 37.5186C48.9854 36.5717 48.0823 36.1018 46.3738 37.1884C44.5972 38.3186 44.751 39.3615 45.317 40.249L45.3973 40.373C45.8375 41.07 46.7407 41.7827 48.5609 40.6228C50.2711 39.5362 50.2781 38.5964 49.6685 37.6496L49.5881 37.5168V37.5186ZM53.8523 43.9349C53.4557 43.3113 52.7884 43.3846 51.1359 43.9279L49.0518 44.6092C48.8457 45.2992 48.781 45.8949 49.3086 46.716L49.3959 46.8627C49.9619 47.7431 50.8354 47.9632 52.5963 46.8487C54.4025 45.6958 54.4899 44.9254 53.9326 44.0589L53.8523 43.9349Z" fill="#0054A5"/>
<path d="M62.4241 38.6994L61.6467 39.0802C61.4633 39.1676 61.2362 39.0942 61.1471 38.9038L60.9636 38.5369C60.3837 39.4034 59.7164 40.1738 58.7695 40.6437C57.3371 41.3477 55.716 41.3704 54.6801 39.2636L54.577 39.0662C53.6809 37.246 54.2905 35.8065 57.2934 34.3322L58.5425 33.7155L58.2123 33.0395C57.5083 31.6227 56.7798 31.3729 55.4662 32.0263C54.3726 32.5626 53.5953 33.0325 52.9559 33.429C52.9192 33.45 52.9052 33.4587 52.8685 33.4727C52.7148 33.5461 52.5384 33.5758 52.4353 33.3556L52.1418 32.76C52.0475 32.5765 52.1209 32.4158 52.341 32.2691C52.9716 31.8062 53.6983 31.3223 54.8443 30.7563C57.1851 29.6033 58.7119 30.3161 59.6954 32.3058L62.5952 38.1928C62.6913 38.3762 62.6092 38.6033 62.4258 38.6994H62.4241ZM59.0613 34.7794L57.814 35.389C55.7719 36.3952 55.4644 37.122 56.0514 38.3186L56.1545 38.516C56.7484 39.7336 57.4821 39.7702 58.4586 39.2864C59.2377 38.9055 59.8107 38.3256 60.4046 37.4871L59.0613 34.7794Z" fill="#0054A5"/>
<path d="M71.7552 35.1191L70.9027 35.4266C70.7123 35.493 70.4922 35.3969 70.4258 35.1995L68.3121 29.3928C67.6657 27.6092 66.8657 27.2773 65.5223 27.763C64.7799 28.0337 64.0532 28.6224 63.3859 29.3195L66.0953 36.7769C66.1617 36.9534 66.0656 37.1892 65.8752 37.2538L65.0087 37.57C64.8323 37.6364 64.6122 37.5333 64.5458 37.3429L61.2651 28.329C61.1987 28.1386 61.2791 27.9254 61.4713 27.8591L62.3587 27.5359C62.5491 27.4625 62.7482 27.5726 62.8216 27.763L62.9456 28.1001C63.716 27.197 64.4148 26.6467 65.4559 26.2659C67.5767 25.4955 69.0091 26.479 69.8668 28.8268L71.9806 34.6335C72.047 34.8309 71.9439 35.044 71.7535 35.1174L71.7552 35.1191Z" fill="#0054A5"/>
<path d="M72.5141 22.4949L71.5883 22.7447C71.3909 22.7953 71.1777 22.6783 71.1271 22.4809L70.7305 21.0275C70.6799 20.8301 70.7969 20.6239 70.9961 20.5733L71.9202 20.3165C72.1176 20.2658 72.3324 20.3829 72.3831 20.582L72.7796 22.0354C72.8303 22.2328 72.7133 22.439 72.5159 22.4983L72.5141 22.4949ZM75.6271 34.0645L74.7536 34.2986C74.5562 34.358 74.3501 34.2322 74.2907 34.0331L71.7804 24.792C71.721 24.5946 71.8398 24.3885 72.0442 24.3291L72.9107 24.095C73.1081 24.0443 73.3142 24.1614 73.3736 24.3605L75.8839 33.6016C75.9433 33.799 75.8245 34.0121 75.6271 34.0645Z" fill="#0054A5"/>
<path d="M84.6102 32.0993L79.0306 33.1929C78.2375 33.3466 77.8043 32.9134 77.703 32.3928L77.6366 32.0399C77.5335 31.5263 77.5929 31.2259 77.827 30.7629L81.4309 23.8994C81.4536 23.84 81.4815 23.7736 81.4745 23.723C81.4606 23.6426 81.4082 23.5989 81.2614 23.6286L76.7771 24.5021C76.571 24.5458 76.3736 24.4147 76.3282 24.2086L76.2111 23.5762C76.1675 23.3788 76.3072 23.1797 76.5046 23.136L81.9375 22.0791C82.6939 21.9254 83.038 22.2259 83.1481 22.7761L83.2354 23.2251C83.3088 23.6059 83.2354 23.9151 83.0083 24.3187L79.3381 31.3429C79.2804 31.4303 79.2717 31.5124 79.2874 31.57C79.3014 31.6574 79.3311 31.7098 79.4639 31.687L84.3377 30.7332C84.5438 30.6896 84.7412 30.8276 84.7779 31.0267L84.9019 31.6574C84.9386 31.8547 84.8059 32.0609 84.6085 32.0976L84.6102 32.0993Z" fill="#0054A5"/>
<path d="M93.4094 31.1745L92.5429 31.2548C92.3368 31.2688 92.1533 31.1151 92.1394 30.9107L92.1027 30.4984C91.2519 31.1081 90.3558 31.585 89.3059 31.681C87.7127 31.8278 86.1947 31.2688 85.9798 28.9349L85.9571 28.7061C85.7737 26.6884 86.8533 25.5722 90.1863 25.2647L91.5664 25.1407L91.5 24.3913C91.3533 22.8208 90.7663 22.3282 89.3042 22.4609C88.0866 22.571 87.1974 22.7335 86.4567 22.8732C86.42 22.8802 86.3973 22.8802 86.3606 22.8872C86.1929 22.9012 86.0235 22.8575 86.0008 22.6164L85.9414 21.9631C85.9187 21.757 86.0375 21.6329 86.3013 21.5735C87.0507 21.3674 87.9014 21.177 89.1714 21.0599C91.7708 20.8259 92.9377 22.0365 93.1438 24.2393L93.7465 30.7657C93.7605 30.9718 93.6137 31.1552 93.4094 31.1762V31.1745ZM91.6747 26.3146L90.2947 26.4474C88.0254 26.6535 87.4752 27.2108 87.6009 28.5401L87.6236 28.7672C87.7477 30.1106 88.4167 30.4041 89.4963 30.3097C90.3558 30.2294 91.1035 29.8975 91.9542 29.3262L91.6747 26.3163V26.3146Z" fill="#0054A5"/>
<path d="M100.605 31.103C100.225 31.1624 99.739 31.2131 99.3792 31.2131C97.6462 31.2428 96.8182 30.8008 96.7815 28.7325L96.6855 22.1694L94.8582 21.993C94.6521 21.9703 94.4983 21.8602 94.4914 21.6558L94.4844 21.1492C94.4844 20.9431 94.6311 20.8121 94.8372 20.8051L96.6645 20.7754L96.6348 18.9324C96.6348 18.749 96.7588 18.5953 96.965 18.5516L97.9415 18.3909H98.0009C98.1546 18.3839 98.2874 18.5149 98.2874 18.7071L98.3171 20.7544L100.35 20.7247C100.557 20.7178 100.733 20.8855 100.733 21.0916L100.747 21.731C100.747 21.9371 100.578 22.1118 100.373 22.1118L98.3398 22.1485L98.4428 28.7115C98.4568 29.7457 98.7223 29.8924 99.477 29.8785L100.527 29.8645C100.791 29.8575 100.923 29.9309 100.93 30.1213L100.937 30.7816C100.937 30.9493 100.85 31.0594 100.607 31.1048L100.605 31.103Z" fill="#0054A5"/>
<path d="M103.879 31.2712L102.978 31.2118C102.772 31.2048 102.618 31.0214 102.625 30.8153L103.184 21.251C103.2 21.0449 103.375 20.8912 103.581 20.8982L104.484 20.9488C104.688 20.9628 104.844 21.1392 104.835 21.3524L104.278 30.9096C104.262 31.1227 104.087 31.2765 103.879 31.2695V31.2712ZM104.613 19.3067L103.652 19.2474C103.448 19.2404 103.293 19.0569 103.301 18.8508L103.389 17.3537C103.404 17.1476 103.579 16.9869 103.785 17.0008L104.748 17.0533C104.952 17.0672 105.106 17.2437 105.099 17.4498L105.01 18.9539C104.996 19.16 104.821 19.3207 104.613 19.3067Z" fill="#0054A5"/>
<path d="M110.357 32.0426C107.611 31.6688 106.458 29.6721 106.835 26.9329L107.024 25.5162C107.391 22.7788 109.035 21.156 111.774 21.5298C114.52 21.9036 115.685 23.9003 115.318 26.6395L115.13 28.0562C114.754 30.7936 113.096 32.4164 110.357 32.0409V32.0426ZM113.674 26.4211C113.933 24.5205 113.337 23.2051 111.583 22.964C109.852 22.7369 108.926 23.8235 108.663 25.7398L108.472 27.1565C108.215 29.0572 108.795 30.3726 110.551 30.6136C112.284 30.8407 113.231 29.7542 113.487 27.8396L113.676 26.4228L113.674 26.4211Z" fill="#0054A5"/>
<path d="M123.545 34.6968L122.672 34.4767C122.465 34.4261 122.348 34.2199 122.401 34.0155L123.928 28.0185C124.398 26.1755 123.921 25.4558 122.532 25.0976C121.768 24.9072 120.836 24.9806 119.889 25.185L117.931 32.8783C117.887 33.0617 117.672 33.2015 117.475 33.1491L116.58 32.922C116.395 32.8783 116.278 32.6722 116.322 32.473L118.694 23.1726C118.745 22.9664 118.937 22.8424 119.134 22.8948L120.044 23.1289C120.249 23.1726 120.352 23.3787 120.301 23.5761L120.214 23.9202C121.358 23.6128 122.245 23.5464 123.325 23.8242C125.514 24.3832 126.153 25.9973 125.535 28.4272L124.001 34.4243C123.95 34.6217 123.742 34.7475 123.545 34.6951V34.6968Z" fill="#0054A5"/>
<path d="M139.469 26.793L138.632 26.4489C137.818 26.1117 137.472 26.2515 137.084 27.2053L136.564 28.4596L138.391 29.209C138.583 29.2893 138.663 29.4885 138.59 29.6632L138.311 30.3392C138.237 30.5157 138.054 30.5733 137.863 30.4999L136.034 29.7435L132.768 37.6709C132.694 37.8404 132.467 37.9504 132.291 37.8771L131.438 37.5242C131.248 37.4508 131.168 37.208 131.234 37.0385L134.508 29.1111L132.9 28.2237C132.715 28.1276 132.63 27.953 132.694 27.7765L132.892 27.3066C132.965 27.1372 133.157 27.0568 133.348 27.1302L135.037 27.8272L135.55 26.5799C136.321 24.716 137.451 24.5325 138.978 25.1632C139.45 25.3606 139.705 25.523 139.911 25.6698C140.08 25.8025 140.19 25.9266 140.131 26.0873L139.888 26.6603C139.815 26.8507 139.661 26.8646 139.469 26.7913V26.793Z" fill="#0054A5"/>
<path d="M139.005 41.2009C136.559 39.9169 136.157 37.6477 137.441 35.2038L138.102 33.9408C139.386 31.4969 141.477 30.5361 143.922 31.8201C146.368 33.097 146.785 35.3732 145.5 37.8171L144.839 39.0871C143.555 41.531 141.449 42.4779 139.005 41.2009ZM144.041 37.0538C144.929 35.3575 144.811 33.9198 143.246 33.097C141.706 32.29 140.465 32.994 139.562 34.7042L138.902 35.9742C138.014 37.6704 138.116 39.1011 139.681 39.9152C141.223 40.731 142.478 40.0252 143.381 38.315L144.041 37.052V37.0538Z" fill="#0054A5"/>
<path d="M152.717 38.7094C151.992 38.2482 151.213 38.0054 150.118 37.9757L145.861 44.5824C145.758 44.7361 145.516 44.8095 145.347 44.6925L144.568 44.1999C144.414 44.0968 144.364 43.8627 144.472 43.6863L149.648 35.6488C149.765 35.4724 149.98 35.4147 150.154 35.5248L150.895 36.0017C151.072 36.1117 151.101 36.3388 150.991 36.5083L150.778 36.8384C151.924 36.7948 152.784 37.0586 153.488 37.5145C153.708 37.6542 153.758 37.8219 153.641 38.0124L153.224 38.6587C153.112 38.8351 152.937 38.8561 152.717 38.7094Z" fill="#0054A5"/>
<path d="M155.269 52.1977C154.278 51.3382 153.625 50.5975 153.082 49.9599C152.877 49.7101 152.898 49.6297 153.031 49.469L153.524 48.903C153.663 48.7493 153.833 48.7703 153.964 48.8803C153.98 48.8943 153.994 48.91 154.008 48.917C154.608 49.5406 155.623 50.4665 156.275 51.0307C157.985 52.5069 159.03 52.2116 159.888 51.2142C160.504 50.5102 160.431 49.7538 159.828 47.8374L159.168 45.811C158.551 43.8807 158.522 42.595 159.505 41.4578C160.986 39.7318 162.911 40.0044 165.076 41.8683C165.913 42.595 166.933 43.6222 167.403 44.1724C167.52 44.3262 167.556 44.4799 167.432 44.6284L166.903 45.238C166.788 45.3778 166.611 45.3778 166.472 45.2608C166.461 45.2514 166.451 45.2415 166.442 45.2311C165.846 44.6511 164.894 43.7497 164.07 43.037C162.601 41.774 161.706 41.5469 160.81 42.581C160.232 43.2571 160.356 44.0554 160.876 45.6416L161.509 47.5579C162.309 49.9581 162.221 51.2421 161.238 52.3811C160.064 53.7472 158.074 54.6136 155.269 52.1977Z" fill="#0054A5"/>
<path d="M163.186 59.6246C162.886 59.3975 162.519 59.0744 162.267 58.8176C161.057 57.5843 160.807 56.6811 162.283 55.2347L166.966 50.6473L165.836 49.2009C165.703 49.0472 165.682 48.8568 165.829 48.71L166.194 48.3572C166.341 48.2104 166.54 48.2331 166.68 48.3799L167.957 49.6796L169.272 48.3939C169.403 48.2628 169.611 48.2471 169.777 48.3729L170.572 48.9668C170.572 48.9668 170.595 48.9895 170.609 49.0035C170.712 49.1136 170.712 49.297 170.579 49.4298L169.11 50.8605L170.533 52.3069C170.673 52.4536 170.673 52.6965 170.526 52.8432L170.071 53.2904C169.924 53.4301 169.683 53.4301 169.536 53.2834L168.119 51.83L163.436 56.4173C162.702 57.1371 162.776 57.4305 163.305 57.9651L164.039 58.7145C164.222 58.9049 164.259 59.0534 164.126 59.1844L163.656 59.6456C163.532 59.7626 163.385 59.7714 163.186 59.6246Z" fill="#0054A5"/>
<path d="M168.64 66.0949L168.097 65.4188C167.966 65.2581 167.987 65.0223 168.148 64.8912L168.471 64.6345C167.494 64.2676 166.593 63.7837 165.933 62.9679C164.918 61.7346 164.53 60.1572 166.35 58.6741L166.527 58.5273C168.104 57.2503 169.64 57.5211 171.746 60.1205L172.627 61.2001L173.212 60.7232C174.431 59.7257 174.512 58.9623 173.587 57.8233C172.815 56.8765 172.185 56.2232 171.65 55.6869C171.627 55.6572 171.62 55.6432 171.591 55.6135C171.488 55.4807 171.421 55.32 171.613 55.1645L172.12 54.7453C172.281 54.6143 172.45 54.6422 172.648 54.8257C173.235 55.3392 173.874 55.9419 174.681 56.9254C176.325 58.9518 175.974 60.6026 174.257 61.9984L169.17 66.1455C169.007 66.2783 168.771 66.2486 168.64 66.0949ZM171.708 61.9407L170.827 60.8682C169.397 59.0985 168.618 58.9605 167.59 59.7973L167.414 59.944C166.364 60.7948 166.488 61.5145 167.18 62.367C167.723 63.036 168.413 63.4675 169.367 63.8571L171.708 61.9407Z" fill="#0054A5"/>
<path d="M174.141 74.295L173.655 73.5386C173.538 73.3691 173.589 73.135 173.765 73.018L178.954 69.6622C180.547 68.628 180.686 67.7756 179.907 66.5789C179.483 65.9186 178.747 65.3386 177.918 64.846L171.26 69.1556C171.105 69.2587 170.855 69.222 170.738 69.0456L170.24 68.2752C170.137 68.1145 170.189 67.8786 170.364 67.7686L178.403 62.5646C178.58 62.4545 178.807 62.4842 178.917 62.6607L179.422 63.4468C179.539 63.6232 179.472 63.8433 179.305 63.9534L179.004 64.1438C180.054 64.694 180.751 65.253 181.354 66.1859C182.58 68.0795 181.948 69.6954 179.85 71.0527L174.66 74.4155C174.49 74.5256 174.256 74.4749 174.139 74.2985L174.141 74.295Z" fill="#0054A5"/>
<path d="M178.752 82.7739C178.032 81.8341 177.437 80.8506 176.923 79.8234C175.676 77.3201 176.733 75.3531 179.25 74.0901L180.46 73.4875C183.096 72.1738 185.182 72.6507 186.4 75.1016C186.664 75.6239 187.01 76.438 187.216 77.149L190.343 75.5925C190.512 75.5121 190.725 75.5715 190.819 75.7532L191.246 76.6127C191.333 76.7751 191.26 76.9795 191.076 77.0686L179.316 82.9347C179.096 83.0447 178.956 83.0517 178.75 82.7722L178.752 82.7739ZM185.974 77.7761C185.797 77.1664 185.38 76.286 185.107 75.7497C184.284 74.0971 182.993 74.0762 181.194 74.9706L179.99 75.5733C178.154 76.4834 177.391 77.5175 178.221 79.1771C178.499 79.7501 178.962 80.5502 179.3 81.0934L185.974 77.7761Z" fill="#0054A5"/>
<path d="M181.961 91.5439L181.659 90.7369C181.585 90.5395 181.69 90.3246 181.879 90.2512L182.268 90.1045C181.461 89.4442 180.764 88.7017 180.397 87.7182C179.847 86.2211 179.985 84.6053 182.188 83.7825L182.401 83.7091C184.302 82.9964 185.659 83.7528 186.826 86.8884L187.312 88.1951L188.016 87.9296C189.492 87.3793 189.815 86.6823 189.301 85.3093C188.875 84.1633 188.494 83.3492 188.162 82.6662C188.148 82.6295 188.141 82.6155 188.126 82.5789C188.068 82.4251 188.068 82.2417 188.295 82.1596L188.912 81.9325C189.102 81.8591 189.256 81.9395 189.382 82.1736C189.771 82.8496 190.183 83.62 190.624 84.8166C191.534 87.2675 190.666 88.707 188.59 89.4773L182.445 91.7605C182.254 91.8339 182.034 91.7308 181.961 91.5404V91.5439ZM186.204 88.6074L185.718 87.3007C184.925 85.1712 184.244 84.7904 182.988 85.2534L182.782 85.3267C181.512 85.8036 181.402 86.5233 181.776 87.5435C182.076 88.3576 182.59 88.983 183.362 89.6573L186.202 88.6074H186.204Z" fill="#0054A5"/>
<path d="M192.484 95.5435C192.25 94.7137 191.824 94.0097 191.031 93.2533L183.441 95.3444C183.255 95.395 183.028 95.278 182.978 95.0806L182.728 94.1914C182.684 94.008 182.801 93.8019 182.999 93.7512L192.24 91.2042C192.437 91.1448 192.645 91.2479 192.696 91.4453L192.931 92.2978C192.989 92.4952 192.865 92.6873 192.666 92.745L192.283 92.8481C193.164 93.5817 193.634 94.3451 193.854 95.1592C193.927 95.416 193.854 95.5715 193.634 95.6361L192.893 95.8335C192.696 95.8929 192.549 95.7968 192.481 95.54L192.484 95.5435Z" fill="#0054A5"/>
<path d="M185.59 106.218C185.157 105.118 184.857 104.009 184.644 102.878C184.132 100.125 185.687 98.518 188.455 98.0045L189.79 97.7546C192.69 97.2183 194.562 98.2455 195.06 100.939C195.17 101.512 195.273 102.386 195.28 103.133L198.717 102.494C198.9 102.457 199.09 102.574 199.129 102.78L199.305 103.72C199.342 103.904 199.223 104.08 199.019 104.117L186.092 106.526C185.849 106.569 185.711 106.54 185.594 106.217L185.59 106.218ZM193.914 103.392C193.907 102.761 193.745 101.792 193.637 101.205C193.298 99.3915 192.066 99.0107 190.09 99.3845L188.763 99.6256C186.745 100.001 185.732 100.786 186.069 102.614C186.186 103.245 186.408 104.141 186.583 104.758L193.916 103.392H193.914Z" fill="#0054A5"/>
<path d="M185.81 110.186L185.721 109.283C185.7 109.077 185.845 108.893 186.053 108.87L195.587 107.88C195.793 107.857 195.977 108.004 195.999 108.21L196.096 109.113C196.118 109.319 195.965 109.503 195.758 109.526L186.231 110.516C186.026 110.539 185.834 110.392 185.812 110.186H185.81ZM197.745 108.975L197.642 108.021C197.619 107.815 197.774 107.632 197.979 107.609L199.476 107.455C199.68 107.433 199.865 107.579 199.888 107.786L199.984 108.739C200.005 108.944 199.858 109.136 199.652 109.159L198.155 109.312C197.951 109.335 197.766 109.181 197.743 108.975H197.745Z" fill="#0054A5"/>
<path d="M186.304 119.393L186.134 113.719C186.104 112.903 186.604 112.552 187.133 112.536L187.491 112.529C188.012 112.506 188.298 112.616 188.725 112.919L194.914 117.586C194.972 117.623 195.024 117.66 195.082 117.66C195.155 117.66 195.214 117.616 195.207 117.469L195.068 112.896C195.061 112.69 195.228 112.515 195.435 112.506L196.074 112.492C196.278 112.485 196.455 112.646 196.463 112.852L196.633 118.386C196.654 119.157 196.308 119.45 195.744 119.466L195.29 119.48C194.893 119.496 194.606 119.37 194.247 119.076L187.905 114.32C187.825 114.246 187.752 114.232 187.692 114.232C187.605 114.232 187.546 114.253 187.546 114.386L187.701 119.356C187.708 119.562 187.546 119.737 187.334 119.746L186.695 119.759C186.489 119.766 186.312 119.606 186.305 119.393H186.304Z" fill="#0054A5"/>
<path d="M185.815 128.359L185.88 127.492C185.896 127.286 186.07 127.132 186.278 127.148L186.689 127.178C186.235 126.238 185.903 125.275 185.976 124.227C186.088 122.625 186.886 121.219 189.229 121.38L189.456 121.394C191.482 121.54 192.406 122.791 192.172 126.13L192.076 127.517L192.824 127.567C194.403 127.677 194.983 127.178 195.084 125.71C195.173 124.491 195.158 123.59 195.137 122.833C195.144 122.796 195.144 122.774 195.144 122.737C195.158 122.568 195.224 122.407 195.467 122.421L196.127 122.465C196.332 122.479 196.436 122.618 196.45 122.891C196.531 123.668 196.581 124.533 196.494 125.81C196.309 128.416 194.924 129.372 192.707 129.218L186.165 128.762C185.96 128.746 185.798 128.563 185.814 128.357L185.815 128.359ZM190.895 127.434L190.991 126.047C191.152 123.78 190.689 123.141 189.36 123.046L189.133 123.031C187.782 122.936 187.377 123.551 187.304 124.638C187.246 125.499 187.45 126.29 187.877 127.223L190.894 127.434H190.895Z" fill="#0054A5"/>
<path d="M184.719 135.44C184.726 135.059 184.762 134.569 184.822 134.214C185.087 132.505 185.667 131.756 187.708 132.077L194.189 133.099L194.681 131.33C194.732 131.132 194.866 130.998 195.071 131.028L195.569 131.108C195.775 131.139 195.885 131.305 195.848 131.513L195.569 133.318L197.389 133.604C197.574 133.636 197.705 133.789 197.705 133.994V134.984C197.698 135.009 197.698 135.023 197.698 135.044C197.668 135.19 197.522 135.302 197.338 135.271L195.314 134.956L194.997 136.96C194.959 137.166 194.77 137.304 194.564 137.276L193.934 137.173C193.727 137.142 193.588 136.944 193.617 136.74L193.934 134.734L187.451 133.713C186.431 133.552 186.24 133.788 186.123 134.535L185.963 135.569C185.919 135.833 185.823 135.952 185.639 135.921L184.986 135.818C184.824 135.79 184.72 135.68 184.72 135.437L184.719 135.44Z" fill="#0054A5"/>
<path d="M184.064 138.612L184.253 137.732C184.296 137.527 184.502 137.401 184.702 137.447L194.06 139.526C194.264 139.569 194.39 139.768 194.346 139.973L194.156 140.853C194.112 141.051 193.906 141.183 193.709 141.14L184.349 139.059C184.144 139.017 184.019 138.809 184.064 138.612ZM195.765 141.248L195.971 140.308C196.013 140.111 196.214 139.976 196.418 140.022L197.887 140.354C198.085 140.396 198.217 140.596 198.172 140.801L197.967 141.734C197.924 141.938 197.718 142.064 197.52 142.02L196.051 141.695C195.847 141.652 195.719 141.445 195.765 141.248Z" fill="#0054A5"/>
<path d="M182.271 144.832C183.076 142.189 185.228 141.384 187.871 142.189L189.236 142.607C191.872 143.414 193.201 145.293 192.392 147.936C191.585 150.572 189.419 151.402 186.783 150.593L185.419 150.178C182.783 149.369 181.453 147.468 182.271 144.834V144.832ZM187.269 149.014C189.098 149.573 190.492 149.199 191.014 147.51C191.519 145.837 190.602 144.748 188.754 144.186L187.388 143.765C185.552 143.202 184.166 143.567 183.651 145.248C183.137 146.921 184.054 148.022 185.904 148.597L187.269 149.014Z" fill="#0054A5"/>
<path d="M177.549 157.34L177.909 156.517C177.996 156.327 178.216 156.238 178.407 156.327L184.067 158.792C185.805 159.557 186.591 159.206 187.164 157.897C187.48 157.17 187.553 156.246 187.508 155.279L180.241 152.106C180.071 152.035 179.97 151.806 180.05 151.614L180.417 150.77C180.491 150.6 180.718 150.513 180.908 150.592L189.679 154.424C189.872 154.505 189.966 154.709 189.877 154.901L189.503 155.761C189.423 155.951 189.209 156.026 189.017 155.937L188.687 155.797C188.811 156.973 188.731 157.86 188.284 158.881C187.387 160.944 185.684 161.312 183.403 160.311L177.743 157.84C177.552 157.757 177.465 157.532 177.545 157.342L177.549 157.34Z" fill="#0054A5"/>
</g>
</g>
<defs>
<clipPath id="clip0_1546_3410">
<rect width="200" height="200" fill="white"/>
</clipPath>
<clipPath id="clip1_1546_3410">
<rect width="200" height="166.557" fill="white" transform="translate(0 17)"/>
</clipPath>
</defs>
</svg>
