<svg width="200" height="200" viewBox="0 0 200 200" fill="none" xmlns="http://www.w3.org/2000/svg">
<g clip-path="url(#clip0_1546_3415)">
<path fill-rule="evenodd" clip-rule="evenodd" d="M0.199612 106.078C3.48886 158.973 48.5604 203.2 105.989 199.777C160.039 196.549 202.71 151.327 199.866 93.7212C197.272 41.0488 150.838 -2.95593 93.9431 0.155518C41.0929 3.04916 -3.35633 49.2719 0.199612 106.078Z" fill="#005494"/>
<path fill-rule="evenodd" clip-rule="evenodd" d="M161.488 138.175L163.108 141.251H161.939L160.438 138.277H158.972V141.251H157.984V134.219H160.774C161.999 134.219 163 135.021 163 136.249C163 137.14 162.364 137.903 161.488 138.176V138.175ZM158.972 137.341H160.812C161.445 137.341 161.952 136.835 161.952 136.248C161.952 135.662 161.446 135.157 160.812 135.157H158.972V137.341Z" fill="white"/>
<path fill-rule="evenodd" clip-rule="evenodd" d="M160.283 131.773C163.584 131.773 166.262 134.45 166.262 137.752C166.262 141.054 163.585 143.73 160.283 143.73C156.981 143.73 154.305 141.054 154.305 137.752C154.305 134.45 156.981 131.773 160.283 131.773ZM160.283 132.73C163.056 132.73 165.306 134.979 165.306 137.753C165.306 140.527 163.057 142.776 160.283 142.776C157.509 142.776 155.26 140.527 155.26 137.753C155.26 134.979 157.509 132.73 160.283 132.73Z" fill="white"/>
<path fill-rule="evenodd" clip-rule="evenodd" d="M96.06 117.638C96.0267 121.335 95.7613 125.457 97.4313 128.497C99.9053 133 109.415 134 108.232 120.874C107.061 107.868 86.8168 105.197 82.8475 85.6659C81.4598 78.8341 82.5484 70.4909 85.6389 65.357C91.9863 54.8092 111.748 53.3602 118.905 63.2284C121.671 67.0417 123.63 76.252 123.585 82.8438L109.744 82.8216C109.254 78.7883 109.716 75.5453 107.93 72.0382C103.883 64.0862 89.3811 72.5209 102.316 87.831C109.103 95.8674 121.531 101.081 124.091 115.745C129.27 145.397 97.9553 151.269 85.9229 136.93C82.7213 133.114 80.5979 125.88 80.5312 117.599L96.06 117.638Z" fill="white"/>
<path fill-rule="evenodd" clip-rule="evenodd" d="M166.377 70.4719H147.797L147.841 92.4298H161.132V107.098L147.797 107.187V142.88H130.906L130.995 57.3594H166.377V70.4719Z" fill="white"/>
<path fill-rule="evenodd" clip-rule="evenodd" d="M31.0781 57.4981L45.1196 57.3203L60.7213 98.5248L60.8102 57.3648H75.3007V142.752L62.766 142.885L47.2532 98.8359L47.2088 143.241L31.1448 143.285L31.0781 57.4981Z" fill="white"/>
</g>
<defs>
<clipPath id="clip0_1546_3415">
<rect width="200" height="200" fill="white"/>
</clipPath>
</defs>
</svg>
