<svg width="200" height="200" viewBox="0 0 200 200" fill="none" xmlns="http://www.w3.org/2000/svg">
<g clip-path="url(#clip0_1546_3384)">
<path d="M193.278 56.6641H6.72202C3.83798 56.6641 1.5 59.002 1.5 61.8861V138.77C1.5 141.654 3.83798 143.992 6.72202 143.992H193.278C196.162 143.992 198.5 141.654 198.5 138.77V61.8861C198.5 59.002 196.162 56.6641 193.278 56.6641Z" fill="white" stroke="#11304F" stroke-width="2.4625" stroke-miterlimit="10"/>
<path d="M36.0681 71.4297C36.0681 71.4297 47.1476 86.1471 48.1883 88.0536C49.229 89.96 52.7748 98.5345 46.8068 104.502C40.8296 110.48 35.7273 111.253 29.4922 108.14C29.4922 108.14 40.7467 108.656 38.3245 97.0609C38.3245 97.0609 26.72 85.9813 36.0773 71.4297H36.0681Z" fill="#209CD7"/>
<path d="M22.2188 100.343C22.2188 100.343 26.2066 107.793 29.4946 108.134C32.7825 108.484 40.4083 106.753 38.3269 97.0547C38.3269 97.0547 32.2668 104.506 22.2188 100.343Z" fill="#74B743"/>
<path d="M27.7506 82.3373C27.7506 82.3373 20.4748 96.889 38.3144 97.0548C38.3144 97.0548 32.4293 104.671 22.2063 100.343C22.2063 100.343 18.3934 90.6447 27.7506 82.3281V82.3373Z" fill="#11304F"/>
<path d="M52.5938 73.4688H59.8696L64.7048 96.3646H64.7877L71.1241 73.4688H77.3316L83.6219 96.9724H83.7048L88.7979 73.4688H95.5672L86.7073 109.176H80.7577L74.0805 84.4562H73.9976L67.3204 109.176H61.5826L52.5938 73.4688Z" fill="#11304F"/>
<path d="M98.5781 73.4688H110.312C111.85 73.4688 113.314 73.6437 114.695 74.0029C116.077 74.3621 117.293 74.9423 118.333 75.7712C119.374 76.6001 120.203 77.7053 120.82 79.1052C121.437 80.5051 121.741 82.2366 121.741 84.3272C121.741 86.8508 121.188 88.9967 120.074 90.7558C118.96 92.5241 117.339 93.6385 115.193 94.1082L122.902 109.194H114.898L108.562 94.9186H105.265V109.194H98.5873V73.4688H98.5781ZM105.265 88.2507H109.206C109.805 88.2507 110.44 88.223 111.113 88.177C111.785 88.1309 112.393 87.9744 112.936 87.7257C113.48 87.477 113.931 87.081 114.281 86.5376C114.64 86.0034 114.815 85.2482 114.815 84.272C114.815 83.3602 114.659 82.6418 114.345 82.0984C114.032 81.5643 113.627 81.1498 113.148 80.8643C112.669 80.5788 112.107 80.3854 111.481 80.2841C110.855 80.1828 110.238 80.1367 109.639 80.1367H105.274V88.2599L105.265 88.2507Z" fill="#11304F"/>
<path d="M136.307 73.4688H141.833L155.022 109.176H147.488L144.873 101.605H133.102L130.579 109.176H123.211L136.317 73.4688H136.307ZM138.877 83.8667L135.193 94.9647H142.598L138.877 83.8667Z" fill="#11304F"/>
<path d="M173.038 82.1975C172.494 81.387 171.758 80.7976 170.837 80.4107C169.906 80.0239 169.032 79.8305 168.203 79.8305C167.715 79.8305 167.217 79.895 166.701 80.0331C166.186 80.1713 165.698 80.3831 165.246 80.6686C164.786 80.9541 164.417 81.3317 164.132 81.8014C163.846 82.2711 163.708 82.8422 163.708 83.5145C163.708 84.592 164.049 85.4117 164.74 85.9827C165.421 86.5538 166.287 87.0419 167.328 87.4471C168.368 87.8524 169.492 88.2576 170.689 88.6536C171.887 89.0588 173.01 89.6299 174.051 90.3667C175.092 91.1034 175.957 92.0981 176.639 93.3415C177.32 94.5848 177.67 96.2518 177.67 98.3332C177.67 100.415 177.357 102.045 176.731 103.528C176.105 105.01 175.257 106.235 174.18 107.212C173.102 108.188 171.868 108.906 170.459 109.376C169.05 109.846 167.558 110.085 165.983 110.085C164.012 110.085 162.189 109.735 160.503 109.026C158.818 108.317 157.252 107.175 155.797 105.6L160.549 99.4476C161.231 100.525 162.096 101.354 163.137 101.944C164.178 102.533 165.255 102.828 166.37 102.828C166.913 102.828 167.466 102.754 168.018 102.597C168.571 102.45 169.078 102.22 169.52 101.916C169.962 101.612 170.321 101.225 170.588 100.755C170.855 100.286 170.993 99.7331 170.993 99.0884C170.993 98.0109 170.643 97.1636 169.943 96.5373C169.243 95.911 168.368 95.3861 167.309 94.944C166.25 94.5111 165.108 94.069 163.883 93.6362C162.658 93.2033 161.516 92.6139 160.457 91.8679C159.398 91.1311 158.523 90.1548 157.823 88.9391C157.123 87.7326 156.773 86.1301 156.773 84.15C156.773 82.1698 157.095 80.5489 157.74 79.1029C158.385 77.657 159.241 76.4505 160.31 75.4742C161.378 74.498 162.612 73.7704 164.012 73.2823C165.412 72.7941 166.849 72.5547 168.332 72.5547C170.045 72.5547 171.702 72.8402 173.296 73.4112C174.898 73.9822 176.335 74.9401 177.624 76.2847L173.047 82.1883L173.038 82.1975Z" fill="#11304F"/>
<path d="M26.8429 129.445L26.1429 127.032H22.5603L21.8419 129.445H20.2578L23.3616 119.148H25.443L28.4823 129.445H26.8429ZM24.4207 120.364H24.347L22.7721 125.991H25.9311L24.4115 120.364H24.4207Z" fill="#209CD7"/>
<path d="M38.1629 122.04C38.1629 122.538 38.08 122.971 37.905 123.348C37.73 123.726 37.4906 124.039 37.1958 124.288C36.9011 124.536 36.5604 124.72 36.1828 124.849C35.8052 124.978 35.4091 125.034 34.9855 125.034H33.3093V129.445H31.7344V119.148H34.8657C35.2433 119.148 35.621 119.194 36.0078 119.287C36.4038 119.379 36.7538 119.535 37.0669 119.756C37.38 119.977 37.6379 120.281 37.8498 120.65C38.0524 121.027 38.1537 121.488 38.1537 122.04H38.1629ZM36.588 122.059C36.588 121.442 36.413 120.981 36.063 120.696C35.7131 120.41 35.2618 120.263 34.7092 120.263H33.3001V123.947H34.7092C35.2618 123.947 35.7131 123.79 36.063 123.477C36.413 123.164 36.588 122.685 36.588 122.059Z" fill="#209CD7"/>
<path d="M48.1941 122.04C48.1941 122.538 48.1113 122.971 47.9363 123.348C47.7613 123.726 47.5218 124.039 47.2271 124.288C46.9324 124.536 46.5916 124.72 46.214 124.849C45.8364 124.978 45.4404 125.034 45.0167 125.034H43.3405V129.445H41.7656V119.148H44.897C45.2746 119.148 45.6522 119.194 46.039 119.287C46.435 119.379 46.785 119.535 47.0982 119.756C47.4113 119.977 47.6692 120.281 47.881 120.65C48.0836 121.027 48.1849 121.488 48.1849 122.04H48.1941ZM46.6285 122.059C46.6285 121.442 46.4535 120.981 46.1035 120.696C45.7535 120.41 45.3022 120.263 44.7496 120.263H43.3405V123.947H44.7496C45.3022 123.947 45.7535 123.79 46.1035 123.477C46.4535 123.164 46.6285 122.685 46.6285 122.059Z" fill="#209CD7"/>
<path d="M56.878 129.445L54.7781 124.849H53.3506V129.445H51.8125V119.148H55.0175C55.4688 119.148 55.9017 119.204 56.3069 119.305C56.7122 119.406 57.0621 119.572 57.3661 119.793C57.67 120.014 57.9095 120.309 58.0844 120.668C58.2594 121.027 58.3515 121.46 58.3515 121.967C58.3515 122.381 58.2871 122.75 58.1581 123.053C58.0292 123.367 57.8634 123.624 57.6516 123.845C57.449 124.067 57.2187 124.232 56.97 124.361C56.7214 124.49 56.4819 124.573 56.2517 124.61L58.5726 129.454H56.878V129.445ZM56.7674 122.004C56.7674 121.654 56.7122 121.368 56.5924 121.138C56.4727 120.917 56.3254 120.733 56.1412 120.594C55.957 120.456 55.7359 120.364 55.4965 120.309C55.2478 120.254 55.0083 120.226 54.7597 120.226H53.3506V123.818H54.7965C55.3859 123.818 55.8649 123.661 56.224 123.348C56.5832 123.035 56.7674 122.584 56.7674 121.994V122.004Z" fill="#209CD7"/>
<path d="M70.0719 124.294C70.0719 125.095 69.9798 125.832 69.7864 126.495C69.593 127.158 69.3167 127.729 68.9483 128.208C68.5799 128.687 68.1378 129.056 67.6221 129.313C67.1063 129.571 66.5169 129.709 65.8537 129.709C65.1906 129.709 64.592 129.581 64.0762 129.313C63.5605 129.046 63.1092 128.678 62.7408 128.208C62.3724 127.739 62.0961 127.168 61.9027 126.495C61.7093 125.832 61.6172 125.095 61.6172 124.294C61.6172 123.493 61.7093 122.756 61.8935 122.093C62.0777 121.43 62.354 120.859 62.7132 120.389C63.0724 119.919 63.5144 119.551 64.0486 119.293C64.5828 119.035 65.1814 118.906 65.8537 118.906C66.5261 118.906 67.1063 119.035 67.6221 119.293C68.1378 119.551 68.5799 119.91 68.9483 120.389C69.3167 120.859 69.593 121.43 69.7864 122.093C69.9798 122.756 70.0719 123.493 70.0719 124.294ZM68.4049 124.294C68.4049 123.714 68.3496 123.161 68.2391 122.655C68.1286 122.139 67.9628 121.697 67.751 121.319C67.5392 120.942 67.2721 120.647 66.9497 120.426C66.6274 120.205 66.259 120.104 65.8445 120.104C65.4301 120.104 65.0341 120.214 64.7117 120.426C64.3894 120.638 64.1131 120.942 63.9012 121.319C63.6894 121.697 63.5236 122.139 63.4223 122.655C63.321 123.17 63.2658 123.714 63.2658 124.294C63.2658 124.874 63.321 125.427 63.4223 125.933C63.5236 126.449 63.6894 126.891 63.9012 127.269C64.1131 127.646 64.3894 127.941 64.7117 128.162C65.0341 128.383 65.4117 128.494 65.8445 128.494C66.2774 128.494 66.6366 128.383 66.9497 128.162C67.2721 127.941 67.5392 127.646 67.751 127.269C67.9628 126.891 68.1286 126.44 68.2391 125.933C68.3496 125.418 68.4049 124.874 68.4049 124.294Z" fill="#209CD7"/>
<path d="M77.6748 129.445H75.6486L72.6094 119.148H74.3408L76.6986 127.935H76.7354L79.0932 119.148H80.7694L77.6748 129.445Z" fill="#209CD7"/>
<path d="M83.9609 129.445V119.148H89.1645V120.309H85.4806V123.551H88.9159V124.638H85.4806V128.257H89.3395V129.436H83.9609V129.445Z" fill="#209CD7"/>
<path d="M100.619 124.306C100.619 125.973 100.214 127.244 99.3942 128.128C98.5837 129.003 97.4417 129.445 95.9681 129.445H93.1406V119.148H95.9865C97.4509 119.148 98.5929 119.591 99.4034 120.475C100.214 121.359 100.619 122.639 100.619 124.315V124.306ZM99.0442 124.306C99.0442 123.624 98.9613 123.035 98.8047 122.528C98.6482 122.022 98.4363 121.607 98.16 121.276C97.8837 120.944 97.5614 120.696 97.1838 120.53C96.8062 120.364 96.4009 120.281 95.9773 120.281H94.7063V128.285H95.9773C96.4009 128.285 96.8062 128.202 97.1838 128.036C97.5614 127.87 97.8837 127.622 98.16 127.29C98.4363 126.958 98.6482 126.544 98.8047 126.047C98.9613 125.549 99.0442 124.96 99.0442 124.297V124.306Z" fill="#209CD7"/>
<path d="M116.03 122.04C116.03 122.538 115.947 122.971 115.772 123.348C115.597 123.726 115.358 124.039 115.063 124.288C114.768 124.536 114.428 124.72 114.05 124.849C113.672 124.978 113.276 125.034 112.853 125.034H111.176V129.445H109.602V119.148H112.733C113.111 119.148 113.488 119.194 113.875 119.287C114.271 119.379 114.621 119.535 114.934 119.756C115.247 119.977 115.505 120.281 115.717 120.65C115.92 121.027 116.021 121.488 116.021 122.04H116.03ZM114.464 122.059C114.464 121.442 114.289 120.981 113.939 120.696C113.589 120.41 113.138 120.263 112.586 120.263H111.176V123.947H112.586C113.138 123.947 113.589 123.79 113.939 123.477C114.289 123.164 114.464 122.685 114.464 122.059Z" fill="#209CD7"/>
<path d="M124.706 129.445L122.606 124.849H121.179V129.445H119.641V119.148H122.846C123.297 119.148 123.73 119.204 124.135 119.305C124.54 119.406 124.89 119.572 125.194 119.793C125.498 120.014 125.738 120.309 125.913 120.668C126.088 121.027 126.18 121.46 126.18 121.967C126.18 122.381 126.115 122.75 125.986 123.053C125.857 123.367 125.692 123.624 125.48 123.845C125.277 124.067 125.047 124.232 124.798 124.361C124.55 124.49 124.31 124.573 124.08 124.61L126.401 129.454H124.706V129.445ZM124.605 122.004C124.605 121.654 124.55 121.368 124.43 121.138C124.31 120.917 124.163 120.733 123.978 120.594C123.794 120.456 123.573 120.364 123.334 120.309C123.085 120.254 122.846 120.226 122.597 120.226H121.188V123.818H122.634C123.223 123.818 123.702 123.661 124.061 123.348C124.421 123.035 124.605 122.584 124.605 121.994V122.004Z" fill="#209CD7"/>
<path d="M137.916 124.294C137.916 125.095 137.824 125.832 137.63 126.495C137.437 127.158 137.16 127.729 136.792 128.208C136.424 128.687 135.982 129.056 135.466 129.313C134.95 129.571 134.361 129.709 133.698 129.709C133.034 129.709 132.436 129.581 131.92 129.313C131.404 129.046 130.953 128.678 130.585 128.208C130.216 127.739 129.94 127.168 129.746 126.495C129.553 125.832 129.461 125.095 129.461 124.294C129.461 123.493 129.553 122.756 129.737 122.093C129.921 121.43 130.198 120.859 130.557 120.389C130.916 119.919 131.358 119.551 131.892 119.293C132.427 119.035 133.025 118.906 133.698 118.906C134.37 118.906 134.95 119.035 135.466 119.293C135.982 119.551 136.424 119.91 136.792 120.389C137.16 120.859 137.437 121.43 137.63 122.093C137.824 122.756 137.916 123.493 137.916 124.294ZM136.258 124.294C136.258 123.714 136.203 123.161 136.092 122.655C135.982 122.139 135.816 121.697 135.604 121.319C135.392 120.942 135.125 120.647 134.803 120.426C134.48 120.205 134.112 120.104 133.698 120.104C133.283 120.104 132.887 120.214 132.565 120.426C132.242 120.638 131.966 120.942 131.754 121.319C131.542 121.697 131.377 122.139 131.275 122.655C131.174 123.17 131.119 123.714 131.119 124.294C131.119 124.874 131.174 125.427 131.275 125.933C131.377 126.449 131.542 126.891 131.754 127.269C131.966 127.646 132.242 127.941 132.565 128.162C132.887 128.383 133.265 128.494 133.698 128.494C134.13 128.494 134.49 128.383 134.803 128.162C135.125 127.941 135.392 127.646 135.604 127.269C135.816 126.891 135.982 126.44 136.092 125.933C136.203 125.418 136.258 124.874 136.258 124.294Z" fill="#209CD7"/>
<path d="M149.299 124.306C149.299 125.973 148.894 127.244 148.074 128.128C147.263 129.003 146.121 129.445 144.648 129.445H141.82V119.148H144.666C146.131 119.148 147.273 119.591 148.083 120.475C148.894 121.359 149.299 122.639 149.299 124.315V124.306ZM147.733 124.306C147.733 123.624 147.65 123.035 147.494 122.528C147.337 122.022 147.125 121.607 146.849 121.276C146.573 120.944 146.25 120.696 145.873 120.53C145.495 120.364 145.09 120.281 144.666 120.281H143.395V128.285H144.666C145.09 128.285 145.495 128.202 145.873 128.036C146.25 127.87 146.573 127.622 146.849 127.29C147.125 126.958 147.337 126.544 147.494 126.047C147.65 125.549 147.733 124.96 147.733 124.297V124.306Z" fill="#209CD7"/>
<path d="M160.226 127.382C160.097 127.843 159.886 128.239 159.6 128.579C159.305 128.92 158.928 129.196 158.458 129.39C157.988 129.583 157.408 129.685 156.717 129.685C156.027 129.685 155.456 129.583 154.995 129.39C154.535 129.196 154.157 128.92 153.872 128.579C153.586 128.239 153.374 127.833 153.255 127.382C153.135 126.931 153.07 126.433 153.07 125.909V119.148H154.645V125.78C154.645 126.13 154.682 126.47 154.737 126.793C154.793 127.115 154.912 127.41 155.069 127.658C155.225 127.907 155.437 128.11 155.714 128.266C155.99 128.414 156.331 128.487 156.754 128.487C157.178 128.487 157.519 128.414 157.786 128.266C158.053 128.119 158.265 127.916 158.421 127.658C158.578 127.41 158.688 127.115 158.753 126.793C158.817 126.47 158.845 126.13 158.845 125.78V119.148H160.42V125.909C160.42 126.433 160.355 126.922 160.226 127.382Z" fill="#209CD7"/>
<path d="M170.325 129.332C169.837 129.581 169.248 129.7 168.548 129.7C167.848 129.7 167.24 129.562 166.697 129.295C166.153 129.028 165.693 128.641 165.315 128.162C164.938 127.683 164.661 127.112 164.459 126.449C164.265 125.795 164.164 125.077 164.164 124.303C164.164 123.53 164.265 122.811 164.468 122.148C164.671 121.485 164.965 120.923 165.343 120.435C165.721 119.956 166.181 119.579 166.724 119.311C167.268 119.035 167.876 118.906 168.548 118.906C169.174 118.906 169.754 119.008 170.279 119.21C170.804 119.413 171.237 119.726 171.569 120.14L170.593 121.025C170.335 120.711 170.04 120.481 169.699 120.334C169.358 120.186 168.999 120.113 168.612 120.113C168.134 120.113 167.719 120.223 167.369 120.444C167.019 120.665 166.734 120.969 166.503 121.347C166.273 121.724 166.107 122.167 165.988 122.682C165.868 123.189 165.813 123.732 165.813 124.303C165.813 124.874 165.868 125.418 165.988 125.915C166.107 126.422 166.282 126.864 166.513 127.25C166.743 127.637 167.038 127.932 167.397 128.162C167.747 128.383 168.17 128.494 168.649 128.494C169.082 128.494 169.46 128.392 169.791 128.199C170.123 128.006 170.39 127.766 170.583 127.49L171.523 128.346C171.21 128.752 170.804 129.083 170.316 129.332H170.325Z" fill="#209CD7"/>
<path d="M177.409 120.272V129.454H175.834V120.272H173.477V119.148H179.758V120.272H177.4H177.409Z" fill="#209CD7"/>
</g>
<defs>
<clipPath id="clip0_1546_3384">
<rect width="200" height="200" fill="white"/>
</clipPath>
</defs>
</svg>
