<svg width="159" height="18" viewBox="0 0 159 18" fill="none" xmlns="http://www.w3.org/2000/svg">
<g clip-path="url(#clip0_281_229)">
<path d="M106.567 17.1636H100.37V0.333496H106.134C109.196 0.333496 111.535 1.49096 111.535 4.86729C111.535 6.21688 111.031 7.63911 109.871 8.40997C111.509 9.03557 112.21 10.7999 112.21 12.4611C112.21 15.9569 109.726 17.1636 106.567 17.1636ZM106.132 1.99472H102.031V7.73752H106.42C108.517 7.73752 109.869 7.22908 109.869 4.86729C109.869 2.5055 108.109 1.99472 106.132 1.99472ZM106.567 9.08477H102.034V15.5H106.567C108.737 15.5 110.546 14.9963 110.546 12.4634C110.546 9.93061 108.81 9.08711 106.567 9.08711" fill="#7B92A7"/>
<path d="M54.7296 17.1636H48.5322V0.333496H54.2961C57.3585 0.333496 59.6968 1.49096 59.6968 4.86729C59.6968 6.21688 59.1931 7.63911 58.0333 8.40997C59.6711 9.03557 60.3716 10.7999 60.3716 12.4611C60.3716 15.9569 57.888 17.1636 54.7296 17.1636ZM54.2938 1.99472H50.1934V7.73752H54.582C56.679 7.73752 58.0309 7.22908 58.0309 4.86729C58.0309 2.5055 56.2713 1.99472 54.2938 1.99472ZM54.7296 9.08477H50.1958V15.5H54.7296C56.8992 15.5 58.7081 14.9963 58.7081 12.4634C58.7081 9.93061 56.9719 9.08711 54.7296 9.08711" fill="#7B92A7"/>
<path d="M6.93173 17.1636H0.734375V0.333496H6.49827C9.56063 0.333496 11.899 1.49096 11.899 4.86729C11.899 6.21688 11.3952 7.63911 10.2354 8.40997C11.8732 9.03557 12.5738 10.7999 12.5738 12.4611C12.5738 15.9569 10.0902 17.1636 6.93173 17.1636ZM6.49592 1.99472H2.39559V7.73752H6.78412C8.88115 7.73752 10.2331 7.22908 10.2331 4.86729C10.2331 2.5055 8.47345 1.99472 6.49592 1.99472ZM6.93173 9.08477H2.39794V15.5H6.93173C9.10139 15.5 10.9102 14.9963 10.9102 12.4634C10.9102 9.93061 9.17403 9.08711 6.93173 9.08711" fill="#7B92A7"/>
<path d="M124.832 17.1664V0.333984H135.54V1.9952H126.496V7.56462H134.406V9.18367H126.496V15.5005H135.54V17.1664H124.832Z" fill="#7B92A7"/>
<path d="M25.0947 17.1664V0.333984H35.8001V1.9952H26.7559V7.56462H34.6661V9.18367H26.7559V15.5005H35.8001V17.1664H25.0947Z" fill="#7B92A7"/>
<g clip-path="url(#clip1_281_229)">
<path d="M148.111 17.2687V0.436279H149.775V15.652H158.819V17.2687H148.111Z" fill="#7B92A7"/>
</g>
<g clip-path="url(#clip2_281_229)">
<path d="M79.8601 2.70435L74.218 17.2687H72.4326L78.9439 0.436279H80.7762L87.2875 17.2687H85.4787L79.8601 2.70435Z" fill="#7B92A7"/>
</g>
</g>
<defs>
<clipPath id="clip0_281_229">
<rect width="158.5" height="17.0949" fill="white" transform="translate(0.5 0.202637)"/>
</clipPath>
<clipPath id="clip1_281_229">
<rect width="10.7077" height="16.8324" fill="white" transform="translate(148.111 0.436768)"/>
</clipPath>
<clipPath id="clip2_281_229">
<rect width="14.8549" height="16.8324" fill="white" transform="translate(72.4316 0.436768)"/>
</clipPath>
</defs>
</svg>
