<svg width="123" height="103" viewBox="0 0 123 103" fill="none" xmlns="http://www.w3.org/2000/svg">
<g clip-path="url(#clip0_281_240)">
<path d="M58.8306 0.49939C64.1259 2.02951 68.7079 3.60109 73.3812 6.26324C73.6922 6.4374 74.9694 6.93914 74.9694 7.40357C74.9943 7.4243 75.0191 7.45333 75.0399 7.47406C74.9694 7.52382 74.8947 7.56944 74.8201 7.6192C74.7247 7.59432 74.6252 7.56529 74.5298 7.54041C74.4137 7.50309 74.2935 7.46992 74.1732 7.4326C71.1462 6.45399 67.5054 5.16852 63.9559 5.42976C63.5661 5.45879 63.1804 5.48782 62.7907 5.51684C60.7422 4.67092 50.2926 7.25014 48.2152 8.09606C46.6063 8.74709 45.0679 9.52251 43.6207 10.4928C43.1148 10.8204 42.6089 11.1521 42.103 11.4797C29.0866 20.8595 24.3595 38.3169 30.6624 53.3817C31.5041 55.3887 32.1801 57.5988 33.4158 59.4026C33.7433 59.8878 37.239 64.984 34.7924 64.673C34.1746 64.5942 32.5159 61.2479 31.6949 60.5554C27.005 56.5912 23.8992 52.1543 23.1611 46.0006C22.3774 39.4448 26.3955 34.1412 27.6063 28.3359C27.8924 26.9758 28.108 25.5991 28.1868 24.127C28.2573 22.7752 27.9795 21.4939 28.5186 20.3163C29.4059 18.359 31.7364 16.8994 33.196 15.3112C34.158 14.2621 34.3073 13.0969 34.9044 11.8902C35.7918 10.0782 38.7276 7.99239 40.7927 7.99239C41.2571 7.87214 41.7215 7.75189 42.1818 7.62749C42.5964 7.557 43.0153 7.48236 43.4299 7.41186C43.6248 7.38698 43.8197 7.36625 44.0188 7.34137C44.6781 7.24185 45.3374 7.14648 45.9967 7.0511C48.8662 5.34268 51.151 2.87957 54.2195 1.55264C55.6874 0.914055 57.2093 0.889175 58.8306 0.507683" fill="#BA141A"/>
<path d="M77.0216 7.98853C80.3141 7.98853 83.4987 8.72663 85.3854 11.3141C86.1816 12.4089 86.4843 13.6653 87.6288 14.6066C91.2073 17.5424 95.9967 19.3504 98.0244 23.9241C99.5877 27.4571 99.596 31.3798 99.455 35.6052C99.3223 36.7414 99.1855 37.8818 99.0528 39.0179C99.368 39.6026 99.6914 40.1832 100.011 40.7678C100.649 42.4389 100.467 44.3132 100.123 46.0756C99.3431 50.0563 96.4819 52.3411 94.4666 55.6543C92.3684 59.0878 92.6172 63.7362 89.3123 66.531C88.031 67.6091 86.0074 68.2311 84.5022 68.8987C83.3826 69.3922 81.8152 70.6445 80.538 70.6445C80.0985 69.7695 80.4634 69.3134 81.1393 68.708C85.6259 64.665 90.3241 60.5308 93.0443 55.2562C93.347 54.6218 93.6539 53.9832 93.9607 53.3488C96.1875 49.6707 96.4653 44.9642 96.1709 40.3366C95.524 30.2934 93.0028 22.3194 85.8043 15.6474C84.1829 14.2749 82.5657 12.9023 80.9485 11.5339C79.7501 10.7212 77.569 9.99136 76.7645 8.77639C76.7231 8.7059 76.6899 8.63955 76.6484 8.56906V8.49856C76.7687 8.32441 76.8931 8.15854 77.0133 7.98853" fill="#BA141A"/>
<path d="M61.1826 9.00421C61.5226 9.02909 61.8626 9.05397 62.2068 9.07885C64.475 8.59784 67.6555 9.55986 69.6666 10.1114C82.2185 13.5324 89.8898 23.1609 92.1995 35.7543C92.5976 37.9479 92.3861 40.4151 92.2783 42.6626C92.2534 42.6875 92.2286 42.7124 92.2037 42.7331C90.8228 42.8285 91.3702 38.0806 91.2582 36.849C90.3584 26.8804 84.3582 18.3383 75.6917 13.5946C73.8962 12.6077 71.7316 11.3305 69.5381 11.3305C68.8 10.638 67.1206 10.5675 66.0963 10.4514C58.8273 9.62206 52.3875 11.1688 46.7439 14.4032C45.8192 14.9298 41.092 18.9437 40.5695 18.894C40.4866 18.8733 40.4078 18.8525 40.3249 18.8318C40.2088 18.7281 40.0927 18.6286 39.9766 18.5208C40.4742 16.5387 50.4178 10.7417 52.3004 10.7417C52.9556 10.3933 53.9093 10.0865 54.7179 10.0865C55.1575 9.96624 55.597 9.84598 56.0366 9.72158C56.3061 9.67182 56.5756 9.62621 56.8452 9.57645C57.0152 9.55157 57.1893 9.53084 57.3552 9.50181C57.7989 9.43132 58.2384 9.35668 58.678 9.28618C58.8521 9.2613 59.0221 9.23642 59.1922 9.21154C59.5571 9.18666 59.9261 9.16178 60.291 9.1369C60.5854 9.09129 60.8799 9.04153 61.1743 8.99177" fill="#BA141A"/>
<path d="M38.5867 19.9807C38.8562 20.0305 39.1257 20.0802 39.3953 20.1258C39.2875 21.5108 36.7621 23.9822 36.0199 25.3257C34.2451 28.5187 33.0219 32.0641 32.5948 35.8997C32.1013 40.3076 32.4828 44.9892 33.9756 48.8331C34.3115 49.6998 36.3143 53.4276 36.3143 53.9294C37.9398 55.4388 39.3704 58.0429 41.0954 59.8715C46.5026 65.5898 54.1035 68.5422 62.4258 68.5422C63.0395 68.5173 63.6532 68.4966 64.2586 68.4717C64.5281 68.4468 64.7977 68.4219 65.0672 68.3971C65.2621 68.3722 65.457 68.3514 65.656 68.3224C65.8509 68.2975 66.05 68.2727 66.2407 68.2519C66.4356 68.227 66.6346 68.2022 66.8295 68.1773C67.0244 68.1524 67.2235 68.1275 67.4142 68.1026C67.9533 67.9824 68.4923 67.8621 69.0273 67.7377C71.3162 66.6016 73.8581 66.0583 76.118 64.8641C82.6988 61.3851 87.9775 54.6219 90.0715 47.7467C90.1752 47.3901 90.8179 43.965 91.6058 44.8897C92.12 45.4868 90.6894 49.3141 90.4074 50.0149C84.5606 64.3292 69.6493 72.6557 53.4151 68.4053C41.394 65.2539 30.5753 52.2749 31.2969 39.1175C31.3881 37.3842 31.5539 35.8209 31.7613 34.2286C31.7613 34.0586 31.7613 33.8886 31.7613 33.7186C32.1055 32.4829 32.4455 31.2472 32.7896 30.0115C33.847 26.6278 35.796 22.4272 38.5784 19.9766" fill="#BA141A"/>
<path d="M36.6792 64.6851C39.8348 65.8461 42.385 68.3092 45.3208 69.9181C50.5373 72.771 57.6281 73.9197 64.184 73.9197C64.4535 73.8948 64.723 73.874 64.9884 73.8492H65.9463C66.4854 73.7994 67.0203 73.7496 67.5593 73.704C67.8538 73.6792 68.1482 73.6543 68.4384 73.6294C68.708 73.5838 68.9775 73.5382 69.2429 73.4843C69.417 73.4635 69.5912 73.4345 69.7612 73.4096C70.0805 73.3391 70.3998 73.2645 70.7149 73.194C72.2575 72.7835 73.7959 72.3688 75.3343 71.9583C76.3585 71.5768 77.3869 71.1953 78.4111 70.8138C78.5729 70.9133 78.7346 71.017 78.9004 71.1207C79.3151 72.062 77.7311 72.543 77.1713 72.8166C73.6093 74.5334 70.2215 77.7221 65.7307 77.4277C63.4334 77.2743 61.7789 76.0345 59.4195 76.0345C56.6163 76.0345 54.232 77.0379 51.491 77.1126C47.0251 77.2328 44.0146 73.2355 41 70.5194C39.4782 69.1469 35.6425 67.0238 36.6792 64.6892" fill="#BA141A"/>
<path d="M44.4169 43.9395C45.0181 41.3395 45.4826 39.3906 45.8101 38.0886C46.1377 36.7616 46.3824 35.8411 46.5524 35.2688C46.7141 34.7007 46.797 34.3483 46.8219 34.2405C46.8509 34.1617 46.88 33.9958 46.88 33.8341C46.2497 33.7263 45.7604 33.6433 45.3747 33.5646C45.0181 33.4816 44.6615 33.295 44.3091 32.9923C44.4169 32.2625 44.5827 31.8022 44.8025 31.5576C45.1052 31.5037 45.4038 31.4746 45.6774 31.5286C45.9802 31.5576 46.4985 31.5825 47.2905 31.5825C47.5932 30.0648 47.813 28.5761 47.9996 27.0833C48.1945 25.5947 48.435 24.2139 48.7916 22.9118C48.9823 22.5593 49.1482 22.2857 49.2311 22.0991C49.5587 21.9083 50.16 21.8295 51.064 21.8793C51.9389 21.9332 52.4821 22.0991 52.648 22.4225C52.7599 24.1558 52.6729 25.6735 52.4323 27.0253C52.2126 28.3812 51.9679 29.9528 51.7233 31.74C53.1456 31.6612 54.402 31.4166 55.4926 31.0351C56.5873 30.6578 57.4332 29.9777 58.0345 29.0571C58.9094 27.6473 59.1002 26.0218 58.6109 24.1268C58.0925 22.2566 56.5583 21.2034 53.9376 21.0126C50.0563 20.7431 47.4066 21.3651 46.0382 22.9077C44.6408 24.4212 43.629 26.9714 42.9489 30.5707C42.8411 30.8402 42.3187 30.9231 41.4437 30.8153C40.5397 30.7075 40.0504 30.4919 39.9385 30.1643C39.9385 28.3771 40.2412 26.8345 40.9005 25.5574C41.5557 24.2843 42.3477 23.2269 43.2517 22.4142C44.1515 21.5766 45.1094 20.9504 46.0631 20.5192C47.0458 20.0879 47.8379 19.7894 48.4391 19.6525C50.1351 19.3001 51.885 19.1632 53.6598 19.1923C55.4636 19.2171 57.0766 19.5157 58.5238 20.0299C59.9461 20.5731 61.1196 21.3817 61.9697 22.4432C62.8446 23.5297 63.2261 24.9354 63.0644 26.6977C62.9027 28.3232 62.1604 29.6791 60.8791 30.7324C59.5936 31.8147 58.1755 32.6274 56.6163 33.1706C58.0635 34.8251 59.4029 36.4755 60.6635 38.1798C61.9157 39.8592 63.1224 41.5676 64.271 43.3009C64.5157 43.6824 64.1342 44.2215 63.1514 44.8186C62.1687 45.4406 61.5384 45.6064 61.2647 45.3037C59.9254 43.4336 58.5321 41.5635 57.0849 39.6975C55.6087 37.7983 54.1034 35.9323 52.5194 34.0622C51.9721 34.087 51.5076 34.087 51.0971 34.0622C50.7695 35.6047 50.471 37.1224 50.1392 38.6649C49.8117 40.1826 49.5131 41.7252 49.1814 43.2429C48.8248 44.2173 48.1986 44.8974 47.2946 45.2747C46.3948 45.6521 45.6028 45.8718 44.8896 45.8967C44.2842 45.764 44.1266 45.113 44.421 43.9188" fill="#BA141A"/>
<path d="M73.8914 59.9419C72.0627 59.888 70.2299 59.8051 68.3971 59.7512C66.5684 59.6931 64.7356 59.6931 62.8986 59.5853C62.4342 59.5604 62.0527 59.5065 61.75 59.5065C61.4473 59.5065 61.1197 59.3987 60.7963 59.1541C60.7092 59.125 60.6553 58.9633 60.6553 58.7477C60.6553 58.5072 60.7092 58.3164 60.8211 58.2045C61.0119 58.0179 61.4514 57.964 62.1315 57.964C62.8157 57.9889 63.4999 57.9889 64.1841 57.9391C64.5407 56.1768 64.8973 54.4186 65.2498 52.6811C65.6354 50.9188 65.9879 49.1606 66.3445 47.3983C65.8801 47.3693 65.4405 47.3444 65.0051 47.2905C64.5697 47.2366 64.3209 47.0997 64.209 46.9131C64.0182 46.6395 63.9892 46.3409 64.097 46.0175C64.209 45.694 64.3748 45.4742 64.5365 45.3664C64.6443 45.2586 64.9471 45.2047 65.4364 45.2296C65.9298 45.2296 66.4523 45.2296 67.0245 45.1757C67.518 43.2268 67.8995 41.7091 68.1732 40.6517C68.4427 39.5694 68.6625 38.7567 68.7993 38.1595C68.9652 37.5915 69.073 37.1561 69.1849 36.9156C69.2679 36.6419 69.3757 36.3433 69.4876 35.9908C69.7033 35.6674 70.1387 35.5596 70.827 35.6135C71.5112 35.6674 72.0835 35.8291 72.5479 36.0448C72.7676 36.2894 72.8506 36.5589 72.8216 36.8824C72.7676 37.21 72.7137 37.6163 72.6018 38.0766C72.2203 39.7021 71.9466 40.9502 71.7268 41.8418C71.5361 42.7375 71.3702 43.3885 71.2914 43.8488C71.1795 44.309 71.1256 44.6076 71.1007 44.7983C71.0717 44.9601 71.0468 45.1218 71.0468 45.3125C72.9584 45.4203 74.4346 45.4991 75.5044 45.5572C76.5411 45.6401 77.3621 45.6899 77.9385 45.7189C78.5108 45.7728 78.9213 45.8018 79.2198 45.8309C79.4935 45.8848 79.8211 45.9096 80.2026 45.9926C81.2683 46.1833 81.8405 46.5068 81.9276 46.9422C81.9815 47.3485 81.3802 47.8917 80.0948 48.5676C79.4686 48.7874 78.9752 48.8123 78.6186 48.6796C78.262 48.5428 77.8017 48.2442 77.2253 47.813C76.0767 47.6222 74.9529 47.5144 73.8085 47.4895C72.6598 47.4895 71.5361 47.4895 70.4455 47.5144C70.0931 49.2767 69.7613 51.0391 69.4337 52.7972C69.1062 54.5554 68.7786 56.3177 68.4468 58.051C69.9521 58.0801 71.4532 58.0801 72.9625 58.0801C74.4636 58.105 75.9689 58.105 77.47 58.105C78.1542 58.2128 78.4527 58.6482 78.3988 59.407C77.8514 59.7304 77.3041 60.0041 76.7858 60.1949C76.2384 60.3566 75.5044 60.4934 74.6253 60.5764C74.2978 60.2778 74.0531 60.0871 73.8872 59.9544M61.2648 36.5092C61.1819 36.4014 61.2109 36.1028 61.3726 35.6425C61.4846 35.3191 61.6173 35.1283 61.808 35.0993C62.0029 35.0454 62.3305 34.9376 62.7701 34.722C65.2829 33.9092 67.7709 33.395 70.2299 33.0965C72.7179 32.8269 75.2598 32.6901 77.8556 32.744C79.3567 32.773 80.808 32.9348 82.2013 33.1794C83.5946 33.4489 84.2497 34.3156 84.1709 35.8333C84.1129 36.0779 83.4867 36.3475 82.2593 36.5921C81.0568 36.8616 80.2938 36.8077 79.9621 36.4304C79.7714 35.8333 79.3318 35.373 78.5937 35.1283C77.8556 34.8588 77.0097 34.6681 76.0808 34.6142C75.152 34.5312 74.1941 34.5312 73.2362 34.5851C72.2783 34.639 71.4573 34.6681 70.8021 34.722C69.7903 34.751 68.5049 34.9376 66.8918 35.2113C65.3078 35.5057 64.3499 35.9701 63.9933 36.675C63.587 36.6999 63.1764 36.729 62.7659 36.729C62.3844 36.758 61.9739 36.787 61.5385 36.787C61.4556 36.7041 61.3726 36.5963 61.2648 36.5175" fill="#BA141A"/>
<path d="M4.25327 100.334C4.42328 99.5793 4.62232 99.1149 4.84209 98.9532C5.07016 98.7915 5.23188 98.7749 5.32725 98.8951C5.37286 98.9615 5.34798 99.1108 5.23188 99.3471C5.11992 99.5835 4.98723 99.7701 4.8338 99.9028C4.58915 100.11 4.44401 100.222 4.39425 100.264C4.34864 100.301 4.29888 100.322 4.25327 100.33M4.36108 102.258C4.76745 102.279 5.06601 102.208 5.25676 102.067C5.4558 101.926 5.7046 101.727 6.01974 101.462V101.047C5.55117 101.474 5.20285 101.698 4.95405 101.719C4.71769 101.748 4.51451 101.673 4.36523 101.512C4.2118 101.35 4.16619 101.18 4.22009 100.993C4.39011 100.852 4.56427 100.72 4.74257 100.595C4.91259 100.483 5.09504 100.33 5.27334 100.16C5.53873 99.8945 5.77094 99.6001 5.97828 99.26C6.18561 98.9283 6.18561 98.609 5.97828 98.298C5.84558 98.099 5.45165 98.128 4.81721 98.3851C4.17863 98.6297 3.61883 99.3678 3.14196 100.587C3.00927 100.765 2.89316 100.973 2.75218 101.105L2.73145 101.466C2.81853 101.383 2.87658 101.317 2.92219 101.271C2.95536 101.238 2.99683 101.192 3.0922 101.089C3.12952 101.495 3.26222 101.785 3.51102 101.976C3.74738 102.154 4.0335 102.258 4.36108 102.258Z" fill="#0054A4"/>
<path d="M23.7233 99.5341C23.9721 98.4311 24.2624 97.7552 24.5817 97.523C24.9134 97.2866 25.1498 97.2576 25.2908 97.4401C25.3613 97.5354 25.3198 97.7594 25.1539 98.1035C24.9881 98.4477 24.7932 98.7255 24.5693 98.9163C24.2085 99.219 24.0012 99.3848 23.9307 99.4388C23.8643 99.4927 23.7938 99.5217 23.7233 99.5341ZM23.8809 102.346C24.478 102.375 24.9093 102.275 25.1871 102.068C25.4774 101.86 25.8381 101.57 26.2984 101.184V100.579C25.6184 101.201 25.1042 101.533 24.7434 101.558C24.3951 101.599 24.1048 101.487 23.8809 101.255C23.657 101.023 23.5865 100.774 23.6694 100.496C23.9182 100.289 24.1712 100.098 24.4324 99.9156C24.6812 99.7498 24.9466 99.53 25.212 99.2812C25.6018 98.8955 25.9335 98.4684 26.2404 97.9708C26.5472 97.4857 26.5472 97.0213 26.2404 96.5651C26.0455 96.2749 25.4774 96.3163 24.5444 96.6895C23.6114 97.0503 22.7945 98.1243 22.102 99.9032C21.9071 100.164 21.7122 100.384 21.5049 100.579V101.184C21.6293 101.06 21.7122 100.977 21.7703 100.936C21.8117 100.878 21.8947 100.782 22.0357 100.633C22.0896 101.226 22.2886 101.653 22.6494 101.927C22.9977 102.188 23.4123 102.337 23.8851 102.337" fill="#0054A4"/>
<path d="M27.0494 101.736C26.8669 101.404 26.7923 101.019 26.8255 100.608C26.8213 100.649 26.6928 100.786 26.5891 100.894C26.5476 100.931 26.3942 101.077 26.2988 101.189V100.583C26.4523 100.446 26.7425 100.086 26.8959 99.9487C27.0203 99.2894 27.1447 98.6135 27.2567 97.95C27.3645 97.2741 27.5055 96.6148 27.6714 95.9389C28.0155 94.5456 28.3514 93.1938 28.6666 91.8876C28.9983 90.5773 29.2471 89.6816 29.4005 89.1881C29.471 88.9269 29.6908 88.7735 30.1096 88.7444C30.5118 88.703 30.7067 88.7444 30.6943 88.8398C30.3916 90.3699 30.1137 91.6761 29.8774 92.7667C29.641 93.8531 29.3798 95.1095 29.0771 96.5567C29.019 96.8055 28.9527 97.1621 28.8698 97.6058C28.7744 98.0578 28.7039 98.5264 28.6334 99.0116C28.5629 99.4801 28.509 99.9321 28.4966 100.347C28.4675 100.774 28.5131 101.077 28.5961 101.255C28.6666 101.392 28.7785 101.433 28.9568 101.379C29.1227 101.325 29.3052 101.23 29.5 101.101C29.7654 100.965 29.8318 100.902 29.9769 100.799C30.0972 100.712 30.2216 100.575 30.2216 100.575V101.18C29.8774 101.524 29.5125 101.827 29.2098 102.034C28.9029 102.242 28.5546 102.337 28.1938 102.312C27.6216 102.258 27.2484 102.063 27.0535 101.736" fill="#0054A4"/>
<path d="M33.1253 101.442C32.5282 101.4 32.2338 101.102 32.2752 100.575C32.3167 100.053 32.3872 99.5964 32.466 99.2398C32.578 98.7422 32.8268 98.2736 33.2165 97.8631C33.6188 97.436 34.021 97.3655 34.4522 97.6558C34.7425 97.8465 34.8711 98.1368 34.842 98.5224C34.813 98.908 34.7176 99.4181 34.5642 100.065C34.4813 100.48 34.3278 100.824 34.133 101.097C33.9256 101.375 33.5897 101.483 33.117 101.442M32.3209 102.325C32.6692 102.379 33.0424 102.366 33.4322 102.242C33.822 102.13 34.2242 101.91 34.6554 101.595C34.6679 101.661 34.6845 101.761 34.7093 101.885C34.7218 102.01 34.8213 102.105 34.9747 102.2C35.3769 102.42 35.7128 102.391 36.0031 102.118C36.2975 101.84 36.6002 101.525 36.9485 101.18V100.575C36.6127 100.903 36.4261 101.044 36.3514 101.085C36.2685 101.135 36.0404 101.176 35.9202 101.056C35.746 100.882 35.7667 100.368 35.9202 99.584C36.0736 98.8127 36.1441 98.2446 36.1151 97.9294C36.0985 97.5977 36.057 97.3945 36.0031 97.3116C35.9492 97.2162 35.8911 97.1333 35.8372 97.0503C35.7667 96.9799 35.6714 96.8969 35.5428 96.8181C35.4184 96.7352 35.3189 96.6689 35.236 96.6398C35.153 96.5984 35.0162 96.5693 34.8462 96.5154C34.6637 96.474 34.3859 96.4615 34.0127 96.474C33.54 96.4905 33.1087 96.6564 32.748 96.9716C32.3748 97.2743 32.0555 97.6184 31.7777 98.0041C31.6242 98.2114 31.4584 98.5017 31.2925 98.8707C31.1391 99.2439 30.9898 99.5757 30.8364 99.8618C30.7949 99.9572 30.7659 100.028 30.7368 100.053C30.5876 100.206 30.488 100.301 30.4466 100.355C30.4051 100.397 30.3222 100.48 30.2227 100.575V101.18C30.3761 101.015 30.488 100.907 30.5295 100.849C30.5834 100.807 30.6663 100.724 30.7783 100.587C30.9483 101.62 31.4625 102.2 32.325 102.321" fill="#0054A4"/>
<path d="M37.8359 101.781C37.641 101.437 37.5166 101.039 37.4751 100.595C37.3507 100.703 37.3383 100.778 37.2512 100.844C37.1807 100.927 37.0729 101.047 36.9443 101.172V100.566C37.0563 100.454 37.0978 100.396 37.1807 100.305C37.2387 100.239 37.3466 100.127 37.471 99.9484C37.5124 99.4549 37.5539 98.8868 37.5788 98.2565C37.6078 97.6055 37.7571 97.083 38.0059 96.685C38.1842 96.5606 38.4371 96.4776 38.773 96.4237C39.1047 96.3822 39.2872 96.4071 39.2996 96.5315C39.2291 96.8633 39.1628 97.2613 39.0633 97.7299C38.9679 98.2109 38.8974 98.6795 38.8559 99.1481C38.8145 99.6332 38.8311 100.056 38.885 100.446C38.9389 100.844 39.1089 101.122 39.3577 101.284C39.536 101.396 39.7475 101.379 39.9838 101.201C40.2326 101.035 40.5395 100.815 40.8173 100.566V101.172C40.4648 101.549 40.1248 101.835 39.8594 102.08C39.594 102.316 39.2333 102.424 38.7606 102.37C38.3418 102.329 38.0391 102.138 37.8276 101.777M38.4827 93.5542C38.5781 93.0566 38.6486 92.7705 38.6901 92.7C38.802 92.5342 38.9969 92.4222 39.2623 92.3393C39.5277 92.2439 39.7475 92.3517 39.9299 92.671C39.8346 93.5791 39.7806 94.1182 39.7516 94.2965C39.7267 94.4748 39.6853 94.6697 39.6148 94.848C39.4323 95.0263 39.1835 95.1092 38.8518 95.0719C38.5201 95.0304 38.3376 94.9351 38.2961 94.7982C38.321 94.4541 38.3915 94.0394 38.4869 93.5584" fill="#0054A4"/>
<path d="M43.1056 100.865C42.8568 100.769 42.6868 100.633 42.6039 100.438C42.5334 100.243 42.4214 100.011 42.2804 99.7369C42.5997 99.3637 42.8775 98.9781 43.1263 98.5924C43.3751 98.2068 43.6405 97.8087 43.9474 97.4065C44.0884 97.875 44.2003 98.3561 44.2833 98.8537C44.3662 99.3637 44.3247 99.8323 44.134 100.272C43.993 100.616 43.8147 100.807 43.6074 100.865C43.4 100.919 43.23 100.919 43.1056 100.865ZM42.9812 102.353C43.3586 102.382 43.7442 102.337 44.163 102.217C44.5652 102.092 45.1624 101.611 45.4692 101.031C45.5895 100.803 45.6641 100.575 45.7346 100.367C45.7926 100.176 45.8466 99.9111 45.9005 99.5669C45.9544 99.1688 45.9419 98.7832 45.8839 98.4224C45.8134 98.0492 45.7304 97.7465 45.6351 97.5392C45.4236 97.0996 45.2702 96.8218 45.1872 96.714C45.0919 96.602 44.9384 96.3988 44.6979 96.092C44.8223 95.7478 44.7974 95.4741 44.615 95.2668C44.4325 95.076 44.2252 94.9765 44.0013 94.9931C43.7774 95.0221 43.5991 95.1714 43.4456 95.4492C43.2922 95.7354 43.3212 96.1915 43.5037 96.8135C43.1429 97.4604 42.8112 97.9994 42.5334 98.4265C42.2556 98.8412 41.8948 99.2932 41.5092 99.8074C41.3723 99.9857 41.2728 100.139 41.1774 100.222C41.0779 100.317 40.9701 100.429 40.8291 100.566V101.172C40.9286 101.072 41.0116 100.993 41.082 100.923C41.1525 100.852 41.2479 100.757 41.3723 100.62C41.4843 100.923 41.6626 101.279 41.9031 101.694C42.1394 102.096 42.5002 102.316 42.9895 102.353" fill="#0054A4"/>
<path d="M50.8185 101.711C50.7729 101.711 50.6692 101.695 50.5365 101.657C50.3955 101.62 50.2919 101.396 50.2255 101.006C50.1509 100.567 50.1965 100.131 50.3955 99.6793C50.5863 99.2232 50.9014 99.0242 51.3368 99.0822C51.4405 99.0988 51.5442 99.1734 51.6478 99.3061C51.7432 99.4347 51.7888 99.7084 51.7515 100.119C51.7349 100.455 51.6478 100.799 51.5151 101.164C51.3949 101.52 51.1585 101.707 50.8185 101.715M50.0597 102.329C50.5573 102.375 51.0549 102.254 51.5566 101.956C51.5856 101.939 51.6312 101.91 51.6893 101.873C51.7059 101.939 51.7266 102.001 51.7639 102.06C52.0003 102.35 52.2532 102.424 52.5269 102.283C52.7882 102.142 53.0701 101.889 53.3728 101.537V101.127C53.2484 101.247 53.1075 101.359 52.9499 101.462C52.8006 101.566 52.6969 101.545 52.6472 101.408C52.6306 101.355 52.6099 101.267 52.5808 101.147C52.5518 101.027 52.5642 100.753 52.5891 100.334C52.6638 99.3269 52.8048 98.3109 53.0162 97.3033C53.2319 96.2957 53.4392 95.2963 53.6424 94.297C53.435 94.1767 53.2111 94.185 52.9457 94.326C52.6886 94.467 52.5145 94.6245 52.4067 94.8029C52.3072 95.4 52.191 95.9888 52.0915 96.5859C51.9879 97.183 51.9049 97.7884 51.8386 98.3939C51.312 98.2736 50.86 98.34 50.5034 98.5805C50.1467 98.8127 49.844 99.1154 49.6491 99.4844C49.4501 99.8576 49.3672 100.102 49.3381 100.185C49.3216 100.268 49.2801 100.446 49.2179 100.699C49.1433 100.795 49.0479 100.886 48.9525 100.981C48.8571 101.085 48.8115 101.131 48.8115 101.131V101.541C48.8862 101.467 48.9442 101.421 48.9815 101.371C49.0189 101.334 49.0645 101.28 49.1433 101.214C49.1433 101.533 49.2386 101.794 49.4252 101.997C49.6035 102.205 49.8233 102.304 50.0555 102.333" fill="#0054A4"/>
<path d="M54.8358 100.409C55.0058 99.6626 55.2007 99.2064 55.4164 99.0447C55.6403 98.8872 55.802 98.8664 55.8932 98.9867C55.943 99.053 55.914 99.2023 55.802 99.4345C55.69 99.6667 55.5574 99.8575 55.4081 99.986C55.1634 100.193 55.0224 100.305 54.9727 100.338C54.9271 100.376 54.8773 100.397 54.8317 100.405M54.9437 102.312C55.35 102.333 55.6403 102.267 55.8269 102.126C56.0259 101.985 56.2706 101.79 56.5774 101.529V101.118C56.1172 101.537 55.7688 101.761 55.5242 101.782C55.2878 101.811 55.0929 101.736 54.9395 101.578C54.7902 101.421 54.7405 101.251 54.7985 101.064C54.9685 100.923 55.1385 100.795 55.3168 100.67C55.4869 100.558 55.6652 100.409 55.8435 100.239C56.1047 99.9777 56.3328 99.6875 56.5401 99.3516C56.7474 99.024 56.7474 98.7088 56.5401 98.3979C56.4074 98.203 56.0218 98.232 55.3915 98.4849C54.7612 98.7254 54.2055 99.4553 53.737 100.662C53.6043 100.84 53.5089 100.99 53.3721 101.118V101.529C53.455 101.441 53.4882 101.396 53.5255 101.367C53.5545 101.33 53.6001 101.255 53.6914 101.155C53.7287 101.558 53.8614 101.844 54.106 102.03C54.3424 102.209 54.6244 102.308 54.9437 102.308" fill="#0054A4"/>
<path d="M60.4223 101.773C60.2648 101.491 60.2067 101.155 60.2275 100.798C60.1321 100.856 60.074 100.906 60.0367 100.931C59.9994 100.956 59.9413 101.002 59.8584 101.097L59.8916 100.587C60.0243 100.471 60.157 100.351 60.2855 100.23C60.3933 99.658 60.5011 99.0775 60.5965 98.5053C60.6919 97.9247 60.8121 97.3525 60.9573 96.7678C61.2558 95.5653 61.5419 94.4001 61.8156 93.2722C62.1017 92.1443 62.3174 91.3689 62.4501 90.9418C62.5081 90.7137 62.6989 90.5851 63.0596 90.5603C63.4079 90.5229 63.5779 90.5603 63.5655 90.6432C63.3001 91.9618 63.0638 93.0939 62.8606 94.0352C62.6574 94.9723 62.4293 96.0546 62.1681 97.3069C62.1225 97.5225 62.0603 97.8293 61.9898 98.2108C61.9068 98.6048 61.8488 99.007 61.7866 99.4217C61.7285 99.828 61.6788 100.218 61.6705 100.574C61.6456 100.943 61.6829 101.205 61.7534 101.358C61.8115 101.478 61.911 101.512 62.0644 101.466C62.2096 101.42 62.363 101.333 62.533 101.23C62.7611 101.109 62.9186 101.018 63.014 100.931C63.1094 100.848 63.1591 100.815 63.1591 100.815L63.126 101.325C62.8274 101.624 62.5496 101.86 62.2883 102.038C62.023 102.217 61.7244 102.299 61.4134 102.275C60.9199 102.229 60.5965 102.063 60.4265 101.777" fill="#0054A4"/>
<path d="M64.1979 93.0608C64.1606 93.0401 64.1192 93.0028 64.0694 92.9654C64.0362 92.8618 64.0362 92.7498 64.0487 92.6296C64.1482 92.3351 64.2477 92.0407 64.3389 91.738C64.4385 91.4436 64.5297 91.1492 64.6292 90.8548C64.7495 90.7262 64.8656 90.6931 64.9734 90.7553C65.0812 90.8092 65.2014 90.888 65.33 90.9792C65.33 91.3524 65.2595 91.7007 65.1185 92.0324C64.9775 92.3642 64.8324 92.7001 64.6955 93.0442C64.6168 93.0857 64.5753 93.1064 64.5463 93.1147C64.5172 93.123 64.4716 93.123 64.3928 93.123C64.3058 93.1106 64.2436 93.0898 64.2021 93.065" fill="#0054A4"/>
<path d="M72.9507 102.686C72.0219 102.657 71.0889 102.619 70.1559 102.59C69.2229 102.565 68.294 102.565 67.361 102.512C67.1247 102.499 66.9298 102.47 66.7764 102.47C66.6229 102.47 66.4571 102.416 66.2912 102.292C66.2497 102.275 66.2207 102.196 66.2207 102.084C66.2207 101.96 66.2497 101.865 66.3036 101.807C66.399 101.711 66.6229 101.682 66.9712 101.682C67.3196 101.695 67.6637 101.695 68.0121 101.666C68.1904 100.77 68.3728 99.8743 68.5511 98.991C68.7419 98.0954 68.9243 97.1997 69.1026 96.304C68.8663 96.2874 68.6465 96.275 68.4226 96.2501C68.2028 96.2211 68.0743 96.1547 68.0203 96.0594C67.925 95.9225 67.9084 95.7691 67.9623 95.6032C68.0162 95.4374 68.1033 95.3295 68.1862 95.2715C68.2401 95.2134 68.3935 95.1886 68.6465 95.201C68.8953 95.201 69.1607 95.201 69.4551 95.172C69.7039 94.1809 69.8988 93.4096 70.0356 92.8706C70.1725 92.3191 70.2844 91.9044 70.3549 91.6017C70.4379 91.3114 70.4918 91.0917 70.5498 90.9673C70.5913 90.8304 70.6452 90.677 70.7032 90.4987C70.811 90.3328 71.035 90.2789 71.3833 90.3038C71.7316 90.3328 72.0219 90.4116 72.2582 90.5236C72.3702 90.648 72.4117 90.7848 72.3992 90.9507C72.3702 91.1165 72.3453 91.3197 72.2873 91.5561C72.0924 92.3813 71.9555 93.0157 71.8436 93.4718C71.744 93.928 71.6653 94.2556 71.6238 94.4919C71.5699 94.7283 71.5409 94.8776 71.5284 94.9729C71.5118 95.0559 71.4994 95.1388 71.4994 95.2342C72.4697 95.2881 73.2203 95.3295 73.7676 95.3544C74.2942 95.3959 74.713 95.4208 75.0033 95.4374C75.2936 95.4664 75.5051 95.4788 75.6585 95.4913C75.7953 95.5203 75.9653 95.5327 76.1602 95.5742C76.6993 95.6696 76.9937 95.8354 77.0352 96.0552C77.0642 96.2625 76.7574 96.5362 76.1063 96.8804C75.787 96.9923 75.5382 97.0048 75.3558 96.9384C75.1733 96.8721 74.9411 96.7187 74.6467 96.4989C74.062 96.4035 73.4939 96.3496 72.9093 96.3372C72.3246 96.3372 71.7523 96.3372 71.1967 96.3538C71.0184 97.2494 70.8484 98.1451 70.6866 99.0408C70.5208 99.9365 70.3549 100.832 70.189 101.715C70.9562 101.728 71.7192 101.728 72.4821 101.728C73.2451 101.744 74.0123 101.74 74.7752 101.74C75.1236 101.794 75.277 102.018 75.248 102.404C74.9701 102.57 74.6923 102.706 74.4311 102.802C74.1532 102.885 73.7759 102.955 73.3322 102.997C73.1663 102.847 73.0378 102.748 72.9549 102.682M66.5151 90.7765C66.4736 90.7185 66.4861 90.5692 66.5732 90.3328C66.6271 90.167 66.6976 90.0716 66.7929 90.0591C66.8883 90.0301 67.0583 89.9762 67.2781 89.8642C68.5553 89.4496 69.8241 89.1842 71.0723 89.0308C72.337 88.8939 73.6308 88.8234 74.9494 88.8483C75.7165 88.8608 76.4505 88.9437 77.1596 89.0681C77.8687 89.2049 78.2045 89.6445 78.1631 90.4158C78.134 90.5402 77.8147 90.677 77.1886 90.8014C76.5749 90.9382 76.1893 90.9134 76.0234 90.7185C75.9239 90.4158 75.7041 90.1794 75.3268 90.0591C74.9494 89.9223 74.5182 89.8269 74.0454 89.7979C73.5727 89.7564 73.0876 89.7564 72.5983 89.7855C72.1131 89.8145 71.6943 89.8269 71.3626 89.856C70.8484 89.8725 70.1973 89.9679 69.3763 90.1048C68.5719 90.2582 68.0826 90.4904 67.9042 90.8512C67.6969 90.8677 67.4854 90.8802 67.2781 90.8802C67.0832 90.8926 66.8759 90.9092 66.652 90.9092C66.6105 90.8677 66.569 90.8138 66.511 90.7724" fill="#0054A4"/>
<path d="M77.3963 101.508C77.3963 101.259 77.4087 101.052 77.4377 100.845C77.3424 100.94 77.2967 100.998 77.2843 100.998C77.2719 101.011 77.2304 101.052 77.1475 101.123V100.517C77.2843 100.409 77.4087 100.285 77.5207 100.16C77.5912 99.7624 77.6451 99.4431 77.699 99.2109C77.757 98.9746 77.8234 98.6594 77.8939 98.2738C77.9934 97.9711 78.0888 97.6393 78.2007 97.2827C78.3002 96.9261 78.408 96.6649 78.549 96.5114C78.6859 96.3331 78.9098 96.2378 79.2166 96.2087C79.5359 96.1797 79.6852 96.2378 79.6728 96.3456C79.6189 96.7727 79.5235 97.2703 79.3991 97.8467C79.2871 98.4106 79.1918 98.9206 79.1213 99.3478C79.3037 99.045 79.6064 98.6014 80.0501 98.025C80.4938 97.461 80.9375 97.0339 81.3563 96.7727C81.5056 96.6897 81.6756 96.6193 81.8705 96.5944C82.0488 96.5653 82.1898 96.6897 82.2561 96.9676C82.3266 97.5191 82.3557 98.083 82.3557 98.647C82.3722 99.2109 82.4096 99.7749 82.4386 100.326C82.4842 100.907 82.5796 101.139 82.7869 101.044C83.0108 100.932 83.2596 100.766 83.525 100.521C83.5416 100.521 83.5416 100.521 83.525 100.521V101.127C83.1767 101.529 82.8325 101.886 82.4966 102.217C82.1483 102.537 81.771 102.454 81.3439 101.985C81.0246 101.309 80.8546 100.704 80.8712 100.152C80.8712 99.6007 80.8712 98.9538 80.8546 98.2364C80.3238 98.7755 79.9091 99.4099 79.6023 100.14C79.2954 100.857 78.9637 101.562 78.5905 102.221C78.4661 102.304 78.2712 102.346 77.9809 102.346C77.7031 102.358 77.4958 102.304 77.3838 102.18C77.3838 101.973 77.3963 101.753 77.3963 101.521" fill="#0054A4"/>
<path d="M84.024 100.674C83.8913 100.79 83.8 100.857 83.7752 100.89C83.7171 100.944 83.6342 101.031 83.5264 101.114V100.508C83.6798 100.367 83.8581 100.247 83.9825 100.123C84.0779 99.2684 84.1608 98.6216 84.2147 98.1654C84.2852 97.7259 84.3267 97.3942 84.3516 97.1744C84.3806 96.967 84.4055 96.8178 84.422 96.7473C84.4345 96.6768 84.4345 96.5938 84.4511 96.4985C83.9493 96.3865 83.7669 96.1004 83.8954 95.6318C83.9369 95.495 84.0488 95.4121 84.2023 95.383C84.3557 95.3416 84.563 95.3001 84.7994 95.2586C84.9362 94.6781 85.0482 94.2095 85.1311 93.8778C85.2141 93.5336 85.297 93.2143 85.3675 92.9282C85.438 92.6379 85.5085 92.3352 85.5873 92.0035C85.6577 91.6593 85.7656 91.2198 85.9065 90.6393C85.977 90.49 86.2424 90.3656 86.6695 90.2661C87.1132 90.1831 87.3081 90.237 87.2667 90.4568C87.1547 90.9668 87.0427 91.3815 86.9888 91.6842C86.9183 91.9869 86.8478 92.2896 86.7939 92.5923C86.7359 92.895 86.6695 93.2392 86.599 93.6248C86.5327 94.0271 86.4332 94.562 86.3254 95.2503C87.0469 95.2628 87.5735 95.2752 87.9094 95.3042C88.2287 95.3167 88.2577 95.6609 87.9923 96.3119C87.8804 96.4072 87.6191 96.4612 87.1879 96.4487C86.7691 96.4487 86.3917 96.4653 86.0766 96.4902C85.9936 97.1246 85.8692 97.8669 85.7034 98.7211C85.5375 99.5753 85.5375 100.239 85.7034 100.732C85.8443 101.13 86.0931 101.296 86.4415 101.226C86.7898 101.155 87.2501 100.911 87.6647 100.496V101.101C87.3164 101.487 86.8893 101.806 86.5534 102.038C86.2051 102.275 85.8568 102.341 85.5002 102.287C84.7206 102.163 84.2313 101.628 84.024 100.662" fill="#0054A4"/>
<path d="M90.8948 101.827C90.7165 101.507 90.6584 101.068 90.7414 100.516C90.9197 99.3305 91.0441 98.6131 91.1146 98.3685C91.1685 98.1197 91.2265 97.8874 91.2804 97.6511C91.0151 97.6221 90.8077 97.6096 90.6709 97.6096C90.5175 97.5972 90.3392 97.5972 90.0862 97.5972C89.883 98.0782 89.5886 98.6712 89.1864 99.3595C88.7842 100.048 88.2866 100.641 87.6729 101.109V100.504C88.0336 100.131 88.3778 99.6622 88.6971 99.1107C89.0164 98.5592 89.2652 98.0367 89.4601 97.5516C89.4186 97.4147 89.3481 97.3567 89.2237 97.3733C89.0993 97.4023 89.0039 97.2654 88.921 96.9627C88.78 96.4776 88.9459 96.2039 89.4352 96.1334C89.9079 96.0505 90.2148 96.2702 90.3392 96.7803C90.8243 96.8632 91.3965 96.8757 92.0476 96.8217C92.7027 96.7803 93.022 96.9586 93.0096 97.3857C92.8852 98.0616 92.7857 98.5841 92.7027 98.9573C92.6198 99.3139 92.5244 99.9069 92.4 100.695C92.3295 101.122 92.4415 101.234 92.7774 101.022C93.1091 100.832 93.3455 100.649 93.4699 100.5V101.105C93.0801 101.574 92.7608 101.906 92.512 102.096C92.2632 102.291 91.9854 102.374 91.7076 102.345C91.3426 102.316 91.0814 102.138 90.8989 101.823" fill="#0054A4"/>
<path d="M95.7026 99.4514C95.9514 98.3484 96.2416 97.6725 96.5609 97.4402C96.8927 97.2039 97.129 97.179 97.27 97.3573C97.3405 97.4527 97.299 97.6725 97.1332 98.0166C96.9673 98.3608 96.7724 98.6386 96.5485 98.8294C96.1877 99.1321 95.9804 99.2979 95.9099 99.3518C95.8394 99.4099 95.7731 99.4348 95.7026 99.4472M95.8602 102.263C96.4573 102.288 96.8885 102.192 97.1663 101.985C97.4566 101.778 97.8215 101.487 98.2777 101.102V100.496C97.5935 101.118 97.0793 101.45 96.7185 101.475C96.3702 101.516 96.0799 101.409 95.8602 101.172C95.6362 100.94 95.5657 100.691 95.6487 100.418C95.8975 100.21 96.1504 100.015 96.4158 99.837C96.6646 99.6711 96.93 99.4514 97.1954 99.2026C97.5852 98.8169 97.9169 98.3898 98.2237 97.8922C98.5264 97.4112 98.5264 96.9426 98.2237 96.4865C98.0289 96.1962 97.4608 96.2377 96.5278 96.6109C95.5948 96.9717 94.7737 98.0457 94.0854 99.8246C93.8905 100.086 93.6832 100.306 93.4717 100.5V101.106C93.5961 100.981 93.6956 100.899 93.7495 100.857C93.791 100.803 93.8739 100.708 94.0149 100.554C94.0688 101.147 94.2678 101.574 94.6286 101.848C94.9769 102.109 95.3916 102.259 95.8643 102.259" fill="#0054A4"/>
<path d="M99.5121 101.79C99.2052 101.516 98.9937 101.114 98.8693 100.563C98.7449 100.699 98.6496 100.762 98.5957 100.803C98.5542 100.857 98.4008 100.977 98.2764 101.102V100.496C98.2764 100.496 98.3676 100.413 98.5127 100.293C98.633 100.194 98.7325 100.111 98.8154 100.032C98.8818 99.4638 98.9523 99.0906 98.9937 98.8874C99.0476 98.6925 99.1181 98.5017 99.2135 98.3068C99.4499 97.8673 99.7816 97.4651 100.188 97.0919C100.466 96.8555 100.843 96.6523 101.324 96.4865C101.992 96.2377 102.688 96.2791 103.397 96.5943C103.538 96.7062 103.563 96.868 103.48 97.1168C103.397 97.3656 103.273 97.5439 103.078 97.6558C102.8 97.7802 102.535 97.7927 102.328 97.6558C102.12 97.548 101.992 97.3821 101.925 97.1873C101.867 97.0089 101.731 96.926 101.507 96.9675C101.316 97.0089 101.092 97.2163 100.856 97.6144C100.623 98.0124 100.495 98.4686 100.47 98.991C100.458 99.4886 100.482 99.9697 100.557 100.438C100.623 100.907 100.735 101.197 100.864 101.305C101.075 101.483 101.295 101.566 101.519 101.525C101.743 101.496 102.033 101.388 102.365 101.205C102.419 101.176 102.56 101.069 102.796 100.878C103.02 100.687 103.174 100.558 103.24 100.492V101.098C102.809 101.512 102.377 101.827 101.95 102.051C101.523 102.271 101.017 102.342 100.437 102.259C100.134 102.217 99.8231 102.068 99.5162 101.79" fill="#0054A4"/>
<path d="M104.341 101.798C104.076 101.483 103.91 101.068 103.81 100.587C103.698 100.683 103.603 100.765 103.52 100.836C103.45 100.906 103.354 100.985 103.242 101.097V100.492C103.42 100.355 103.632 100.148 103.839 99.8988C104.047 99.3473 104.353 98.7958 104.768 98.2319C105.17 97.6804 105.701 97.2657 106.352 96.9879C106.589 96.8801 106.783 96.8925 106.949 97.0169C107.115 97.1289 107.09 97.2491 106.895 97.3901C106.365 97.7343 105.933 98.2733 105.618 99.0156C105.299 99.7744 105.299 100.475 105.606 101.122C105.83 101.603 106.373 101.603 107.206 101.122C107.484 100.956 107.779 100.707 108.065 100.376C108.355 100.044 108.554 99.6583 108.62 99.2437C108.716 98.7336 108.716 98.348 108.62 98.0577C108.525 97.784 108.33 97.4523 108.023 97.0667C107.953 96.764 108.09 96.5981 108.438 96.5691C108.774 96.54 108.994 96.54 109.077 96.5815C109.968 97.133 110.304 97.8214 110.08 98.6341C109.86 99.4468 109.412 100.193 108.766 100.853C108.5 101.13 108.027 101.458 107.347 101.831C106.667 102.217 106.029 102.383 105.415 102.329C104.959 102.287 104.594 102.109 104.345 101.794M108.309 94.6118C108.251 94.4335 108.144 94.2552 107.944 94.0769C107.542 93.6913 107.223 93.7328 106.974 94.2013C106.721 94.6823 106.601 94.9726 106.601 95.097C106.448 95.1799 106.307 95.1675 106.157 95.068C106.033 94.7528 106.17 94.3796 106.53 93.9359C106.908 93.5088 107.31 93.2849 107.737 93.2849C108.931 93.2974 109.603 93.9318 109.715 95.1841C109.728 95.408 109.52 95.5158 109.106 95.5158C108.691 95.5158 108.45 95.4495 108.421 95.3085C108.405 95.0182 108.363 94.7694 108.309 94.6036" fill="#0054A4"/>
<path d="M110.535 100.646C110.424 100.741 110.353 100.824 110.312 100.882C110.258 100.936 110.191 101.006 110.075 101.089V100.484C110.229 100.347 110.37 100.223 110.494 100.098C110.589 99.244 110.672 98.5972 110.73 98.141C110.797 97.7015 110.842 97.3697 110.867 97.15C110.896 96.9426 110.921 96.7934 110.938 96.7229C110.954 96.6524 110.954 96.5694 110.963 96.4741C110.461 96.3663 110.283 96.076 110.407 95.6074C110.448 95.4706 110.56 95.3876 110.714 95.3586C110.867 95.3171 111.075 95.2757 111.315 95.2342C111.452 94.6537 111.564 94.1851 111.647 93.8575C111.73 93.5134 111.813 93.1982 111.879 92.9079C111.949 92.6177 112.02 92.315 112.099 91.9832C112.169 91.6391 112.281 91.1995 112.418 90.619C112.489 90.4656 112.75 90.3412 113.181 90.2458C113.625 90.1629 113.82 90.2168 113.778 90.4365C113.67 90.9466 113.558 91.3612 113.504 91.6639C113.434 91.9667 113.368 92.2694 113.31 92.5721C113.256 92.8748 113.185 93.2231 113.115 93.6046C113.044 94.0027 112.949 94.5417 112.841 95.2301C113.563 95.2425 114.093 95.255 114.425 95.284C114.744 95.2964 114.773 95.6406 114.508 96.2875C114.4 96.3828 114.135 96.4409 113.704 96.4243C113.285 96.4243 112.912 96.4409 112.592 96.4658C112.509 97.1002 112.381 97.8425 112.219 98.6967C112.053 99.5509 112.053 100.21 112.219 100.708C112.36 101.106 112.613 101.272 112.957 101.201C113.301 101.131 113.762 100.886 114.18 100.471V101.077C113.832 101.462 113.401 101.782 113.069 102.014C112.721 102.25 112.372 102.317 112.012 102.263C111.232 102.138 110.747 101.603 110.54 100.637" fill="#0054A4"/>
<path d="M116.403 99.4262C116.651 98.3232 116.942 97.6473 117.261 97.4109C117.593 97.1787 117.833 97.1497 117.97 97.328C118.04 97.4234 117.999 97.6473 117.833 97.9915C117.667 98.3356 117.472 98.6135 117.248 98.8042C116.888 99.1069 116.685 99.2728 116.61 99.3267C116.544 99.3806 116.473 99.4096 116.403 99.4221M116.556 102.238C117.157 102.263 117.584 102.167 117.866 101.96C118.157 101.752 118.517 101.462 118.978 101.077V100.471C118.298 101.093 117.783 101.425 117.423 101.45C117.078 101.491 116.784 101.379 116.56 101.147C116.34 100.915 116.27 100.666 116.353 100.392C116.606 100.185 116.855 99.9902 117.116 99.8119C117.365 99.646 117.63 99.4262 117.895 99.1774C118.285 98.7918 118.617 98.3647 118.924 97.8671C119.231 97.3861 119.226 96.9175 118.924 96.4614C118.733 96.1711 118.161 96.2126 117.228 96.5858C116.299 96.9465 115.478 98.0205 114.785 99.7994C114.595 100.061 114.396 100.28 114.192 100.475V101.081C114.317 100.956 114.396 100.873 114.454 100.832C114.499 100.778 114.582 100.683 114.723 100.529C114.777 101.122 114.976 101.549 115.333 101.823C115.681 102.084 116.1 102.234 116.568 102.234" fill="#0054A4"/>
<path d="M0.885879 101.777C0.778066 101.582 0.7366 101.354 0.753186 101.11C0.68684 101.151 0.645373 101.184 0.620493 101.197C0.595613 101.213 0.554147 101.246 0.496094 101.313L0.520974 100.96C0.6122 100.882 0.69928 100.799 0.790506 100.716C0.865146 100.326 0.935639 99.9278 1.00199 99.538C1.06833 99.14 1.14712 98.7502 1.24664 98.3521C1.44982 97.5311 1.64472 96.7349 1.83546 95.9636C2.03036 95.1923 2.17964 94.6616 2.26672 94.3713C2.30818 94.2179 2.44088 94.1267 2.68553 94.1101C2.92189 94.0852 3.03799 94.1101 3.0297 94.1681C2.84725 95.0721 2.68553 95.8434 2.54869 96.4861C2.4077 97.1288 2.25428 97.8669 2.07597 98.7211C2.0428 98.8663 2.00133 99.0778 1.95572 99.339C1.89766 99.6085 1.86034 99.8822 1.81888 100.168C1.77741 100.446 1.74424 100.712 1.73594 100.956C1.71936 101.209 1.74424 101.387 1.794 101.491C1.83546 101.574 1.90181 101.599 2.00548 101.566C2.105 101.533 2.21281 101.475 2.32477 101.404C2.47819 101.321 2.58601 101.259 2.65235 101.201C2.7187 101.143 2.74358 101.11 2.74358 101.11L2.72285 101.47C2.51966 101.674 2.32892 101.835 2.15061 101.96C1.9723 102.08 1.76497 102.138 1.54934 102.121C1.21347 102.088 0.993692 101.976 0.877586 101.781" fill="#0054A4"/>
<path d="M11.781 101.483C12.0713 100.218 12.2952 99.2725 12.4527 98.6422C12.6103 97.9954 12.7306 97.5517 12.8094 97.2739C12.8881 96.996 12.9255 96.826 12.9421 96.7721C12.9545 96.7348 12.9669 96.656 12.9669 96.5731C12.6601 96.5233 12.4196 96.4818 12.2371 96.4404C12.063 96.4031 11.8929 96.3118 11.7188 96.1667C11.7685 95.8101 11.8515 95.5862 11.9551 95.4701C12.1003 95.4452 12.2496 95.4286 12.3823 95.4576C12.5274 95.4701 12.7803 95.4825 13.166 95.4825C13.3111 94.7485 13.4148 94.0229 13.5101 93.3014C13.6014 92.5798 13.7216 91.9081 13.8916 91.2778C13.9829 91.1078 14.0617 90.9751 14.1031 90.8839C14.2607 90.7926 14.5551 90.7512 14.9946 90.7761C15.4176 90.8009 15.683 90.8797 15.7618 91.0373C15.8157 91.8791 15.7784 92.6172 15.6581 93.2723C15.5544 93.9275 15.4342 94.6905 15.3181 95.5613C16.0064 95.5198 16.6201 95.4037 17.1468 95.2171C17.6775 95.0305 18.0881 94.7029 18.3783 94.2551C18.8013 93.5709 18.8925 92.783 18.652 91.8625C18.3991 90.9544 17.6568 90.4443 16.3838 90.3531C14.5012 90.2245 13.2116 90.5272 12.5481 91.2778C11.8722 92.0159 11.3829 93.2516 11.0553 95.0015C11.0014 95.1342 10.7485 95.1715 10.3255 95.1217C9.88597 95.0678 9.64961 94.9642 9.5957 94.8066C9.5957 93.9399 9.74084 93.1894 10.0601 92.5715C10.3794 91.9537 10.7609 91.4395 11.2005 91.0456C11.6359 90.6351 12.1003 90.3365 12.5647 90.125C13.0416 89.9135 13.4272 89.7684 13.7175 89.7021C14.5385 89.532 15.3886 89.4657 16.2511 89.4781C17.126 89.4906 17.9097 89.6357 18.6147 89.8845C19.3072 90.1458 19.8753 90.5397 20.2899 91.0539C20.7129 91.5805 20.8995 92.2647 20.8248 93.1189C20.7461 93.9068 20.3894 94.5661 19.7674 95.0803C19.1455 95.6069 18.453 96.0008 17.6983 96.2662C18.4032 97.0665 19.0542 97.871 19.6638 98.6962C20.2775 99.5089 20.8622 100.338 21.4178 101.18C21.5381 101.362 21.3515 101.628 20.8746 101.914C20.3977 102.217 20.0909 102.295 19.9582 102.154C19.3072 101.246 18.6313 100.342 17.9263 99.4343C17.209 98.5137 16.475 97.6097 15.7079 96.7016C15.4425 96.7141 15.2186 96.7141 15.0195 96.7016C14.862 97.4522 14.7168 98.1903 14.5592 98.9367C14.4017 99.6748 14.2565 100.421 14.099 101.159C13.929 101.632 13.6221 101.964 13.1867 102.146C12.7472 102.329 12.3657 102.436 12.0173 102.449C11.7271 102.383 11.6442 102.067 11.7893 101.491" fill="#0054A4"/>
<path d="M5.75737 93.2142C5.7242 93.1852 5.68688 93.1313 5.65371 93.0691C5.64541 92.9571 5.5998 92.7622 5.55833 92.4927C5.50857 92.2273 5.46296 91.9371 5.43393 91.6468C5.40076 91.3482 5.40076 91.0828 5.42149 90.834C5.43393 90.577 5.50443 90.4235 5.62883 90.3406C5.93983 90.2784 6.13886 90.2991 6.2218 90.4111C6.30473 90.9584 6.4084 91.4726 6.5245 91.9744C6.62817 92.4803 6.68208 92.8203 6.68208 92.9737C6.6489 93.1064 6.56597 93.1893 6.43328 93.2225C6.29644 93.2432 6.1513 93.2557 6.00617 93.264C5.88177 93.264 5.79884 93.2557 5.75737 93.2142ZM7.32481 92.7622C7.31237 92.7 7.28334 92.5881 7.25432 92.4222C7.10918 91.6302 7.03454 91.1575 7.00137 90.9916C6.98064 90.8257 6.9682 90.6516 6.9682 90.465C6.98893 90.3821 7.09259 90.3323 7.29163 90.3199C7.47823 90.2991 7.61507 90.3323 7.69801 90.4111C7.73947 90.494 7.79338 90.6599 7.87631 90.9045C7.94681 91.1533 8.02145 91.4104 8.08365 91.6758C8.15414 91.9536 8.20805 92.2107 8.24122 92.4471C8.28269 92.6959 8.28269 92.8576 8.24122 92.9323C8.16658 93.0152 8.05462 93.0649 7.90949 93.0857C7.75606 93.1064 7.65239 93.0981 7.58605 93.0649C7.43262 92.9198 7.33725 92.8286 7.32481 92.7581" fill="#0054A4"/>
<path d="M122.403 93.3555C122.254 93.3472 122.108 93.3348 121.972 93.3141C121.839 93.285 121.756 93.2021 121.723 93.0694C121.723 92.916 121.777 92.576 121.88 92.0701C121.992 91.5642 122.1 91.05 122.183 90.5068C122.266 90.3948 122.461 90.3741 122.772 90.4363C122.896 90.5192 122.971 90.6727 122.979 90.9297C123 91.1785 123 91.4439 122.971 91.7425C122.938 92.0286 122.896 92.3189 122.847 92.5843C122.805 92.8538 122.764 93.0487 122.751 93.1607C122.718 93.2229 122.677 93.2726 122.648 93.3058C122.606 93.3472 122.523 93.3555 122.403 93.3555ZM120.819 93.1565C120.757 93.1855 120.653 93.198 120.5 93.1772C120.354 93.1565 120.238 93.1067 120.168 93.0238C120.126 92.9533 120.126 92.7875 120.168 92.5387C120.197 92.3023 120.255 92.0452 120.325 91.7674C120.388 91.4978 120.462 91.2407 120.537 90.9961C120.62 90.7473 120.67 90.5856 120.715 90.5026C120.798 90.4197 120.931 90.3907 121.122 90.4114C121.316 90.4197 121.424 90.4736 121.441 90.5565C121.441 90.7431 121.433 90.9173 121.408 91.0832C121.379 91.249 121.304 91.7218 121.159 92.5138C121.126 92.6796 121.097 92.7916 121.084 92.8538C121.072 92.9243 120.981 93.0197 120.823 93.1607" fill="#0054A4"/>
</g>
<defs>
<clipPath id="clip0_281_240">
<rect width="122.5" height="102.501" fill="white" transform="translate(0.5 0.49939)"/>
</clipPath>
</defs>
</svg>
